<?xml version="1.0" encoding="UTF-8"?>
<svg version="1.1" viewBox="0 0 2048 1130" width="1080" height="596" xmlns="http://www.w3.org/2000/svg">
<path transform="translate(0)" d="m0 0h2048v1130h-2048z" fill="#FCFCFC"/>
<path transform="translate(769,812)" d="m0 0h22l16 4 12 6 7 5 1-3 8 1 18 10 3 3v2l4 2 6 7 5 8 4 4 1 3v9h2l1-7 8-16 7-9 11-11 13-8 11-5 16-4 7-1h21l20 4 16 7 6 4h3l3-3 9 3 16 9 7 6 6 5 7 8 7 6 4 3 4 8 1-57 1-1h30l1 42v95h20l64 1 1 1v25l-49 1h-37l-23-1v11h-2l-1 6-8 16-11 15-9 11-3 3v10l5 12 2 2h7l12-7 3-3 3-10 4-6 4-3 5 1-1 2-4 1-5 8v2l6-4 3-6 2 1-3 6-9 6-1 7 3 3 3 1h7l10-5 16-12 2-10 2 1v14l-1 15 5-5 11-18 4-12 3-1-1 6-1 5 5 2 7 2 10 1 2-5 5-5 5-1-2 3h-2l-2 4-3 7 6-4 4-6 1 2-4 6-4 3-4 2-1 7 4 4h9l12-6 14-11 3-3 11-28 11-21 9-14 6-8-16-11-9-8-10-14-7-16-3-12-1-8v-13l2-14 4-13 8-15 9-11 12-10 14-8 13-4 16-3h21l20 4 16 7 6 4 10-2 16 8 13 10 6 5v2l3 1v2l3 1v2l4 2 3 3 1 9 6-14 8-12 9-10 12-9 16-8 17-4 7-1h22l20 4 16 7 7 5 4 1 1-3 3-1 13 6 10 5 4 3 1-25h91l1 1 1 8 1-1 9 1 12 5 6 5v8h2l2-5 7-8 10-7 15-6 16-3h27l20 3 21 7 4 3h7l14 5 3 3v8l8-11 8-7 12-6 15-4 8-1h23l21 4 15 6 7 4-6 17-3 7-6-2-16-6-11-3-9-1h-10l-12 2-10 5-5 6-1 3v10l4 6 10 6 27 8 15 4 16 6 9 6 7 6 5 8 3 10v16l-4 11-6 9-8 8-16 8-11 3-17 2-19-1-20-4-9-3-1 7-8 15-9 12-1 3h-2l-2 5-10 27-8 29-2 12v12l1 2 6-1 9-9 16-23 9-14 2-7 1-8h3v10l-3 19 8-6 10-9 11-8h5l2 2-1 15-1 11 14-11 11-7 6-3 2 1-7 4-12 8-15 12-4 10-5 16-8 18-7 10-2 2h-4l-1-6 2-8 5-14 8-14 9-11 4-11 2-10 1-12-7 4h-2v2l-8 7-9 8h-2v2l-7 1-2-10-7 11-10 15-8 10-8 7h-7l-4-6v-19l5-26-20 6-18 8-9 5-13 16-8 8-6 3h-5l-4-5-2-6v-13l4-23-30 10-16 8-5 1-1-5 2-6-6 3-2-1 9-5 6-15h2l-1 7-8 20 17-9 28-9 7-1 3-10 9-23v-3l-7 2-15-5-11-7-7-3-8 1-9 6-7 4-10 4-19 2h-19l-21-1-17-5-12-4h-8l-21 7-13 2-22 2h-6l-4-2-2 7-10 13-4 8-8 23 1 1 10-14 11-11 5-1 1 1-1 9-2 16 8-2 10-6 9-7 2 1-8 7-5 2v2l-11 5h-5l-2-2v-12l2-6 1-6-8 6-8 10-9 13-5 9-3 1 1-8 6-19-4 5-6 10-7 10-8 11-7 8-6 4-6-1-3-5-1-5v-10l2-13 5-19-2-1 3-3 7-21 5-11-8 1h-27l-12-2-7-4v-2l9 3 7 2h19l20-2v-2l-4 1-11-4-10-8-16-16v-2h-2v-2h-2l-5-5-2-1h-6l-6 2v2h-2l-2 4-4 5-6 5-5 5-11 8-10 6-21 7-9 2-9 1h-21l-20-3-12-4-16-9-3-3 1-2h-2l-2 7-7 11-9 13-9 11-5 5-5 13-3 13v21l2 3 7-1 12-11 10-14 3-16 6-10 6-5 5 1-8 8 8 1 1-7h1v6h5v1l-6 2-9 14-7 6-3 1-8 11-11 12-6 4h-6l-4-5-2-6v-15l3-15 1-6-8 7-10 7-12 5-7-1-5-5-1-2v-8l1-3h-7l-9-2-3-2h-4l-3 6-5 8-8 11-5 1-1-4v-17l-11 9-12 7-10 2-6-3-4-7-7 6-10 4-6-1-5-6-3-8-1-7-3-1 2-1v-18l2-15 7-24-8 7-4 4h-2v2l-7 4-13 6-18 5-16 2h-20l-21-4-19-8-14-8-14-13-5-5-1-3-5-2-3-2-7 1-3 9-5 14-8 9h-2v2l-9 4h-14l-9-4-7-6-4-6-2-6v-6l2-3h-10l-1-105-2-7-8-1-9-1-12 3-6 3-10 10-6 13-2 6-1 7-1 58-1 11-4 9-2 4h-2v2l-4 2h-7l-8-5-3-3v-5l-7-1-17-1v-164h29v19l5-5 11-8 11-5z" fill="#05512B"/>
<path transform="translate(332)" d="m0 0h35v2l11 1 7 6 13 2 3 6v2h8l3 7 4 4 7 2 3 4 2 7 7 6 4 6 1 12 8 7v2h2l1 20 1 1 2 10 4 6 3 16 1 15 3 2v7l-3 8-3 30-6 25-7 23-8 20-8 16-7 12-9 10-14 10-12 6-6 2h-12l-8-6-7-10-4-8-4-9v-5l2-2 5 1 7 11 7 6 5 2 9-1 10-7 9-10 8-14 7-18 6-25 3-25 1-15v-31l-2-15-4-16-5-12-8-14-11-12-10-8-15-7-9-3-6-1h-16l-14 3-12 6h-2v2l-14 10-12 11-11 11 9 18 2 7 1 18-2 14-5 15-7 11-5 14v13l10 15 3 3v17l4 9 11 20 7 8 12 24 8 8 5 14 4 20 6 18 9 17 8 12 7 6v2l4 2 5 5 6 8 5 5 8 12v21l7 8 3 9 2 14v28l-3 16-6 15-1 4v20l-5 23-4 15-1 23-1 5v16l1 1-1 16-4 41-7 8-4 3-1 22-2 2-11 1-3-6v-2h-2l2 7v5l-8 3-7 1-2-4h-2l-10-17-3-6v-7l2-8v-10l-1-3v-17l2-22h-2v2l-7 4h-8l-16-3-10-9-2-1v5l-2 2-1 20-3 12v41l-2 2h-4l2 10v15l-5 10-2 5-10 5-11 1-7 3h-6l-4-5-1-3v-15l-1-2v-9l6-17 4-10 2-19 1-1v-8l-4-20-3-23-2-7-1-31-3-5-5-16-4-8-5-8-13-28-4-11-6-24-1-5 1-14v-11l-3-8-7-8v-2h2l-2-5-2-20-1-3v-19l1-17h-2l-2 4-5 6-5 13-1-4-1-1-1-3 8-70 3-5 12-14 2-2-1-5-2-5-2-1 3 10-14 14-3 9-3 16-4 53-10 12h-2l2-4v-2l-3 1 1-12 7-14-1-1-1 2h-6l4-7 5-10v-16l-3-4-3 1-2 2 1-9-1-4-1-8-1-3v-6l4-5 1-8-6-3-4-5-5-23v-13l2-11 5-9 5-16 2-5-1-13-4-3-10-2v-2l9-1-2-4v-15l-4-2-8-7-9-11-2-8h-2l-9-13-7-17v-1h10l8 11 4 3v2l4 2 3 2 8 1 2 4 3-1-1-5-2-7-4-4-1-5-2-4-1-13-3-12-1-10-2-5v-42l2-2 3-11 2-5 2-4 9-11 11-6 4-3 5-1 1 1 12 1 4 2 7 8 8 9h6l3 3 2 10 5 1 4 2-1 7 7 2 1 12 5 5-1 7-10 21-4 3-4 14h-2l-4-8-9-14-11-13-7-7-3-1v19l9 39 2 6-1 4 5 9h8l4-9 14-34 5-4 10-23 8-8 4-8 2-1 3-8 2-2h4v-7l5-5h6v-5l2-3 7-1 5-8 6-2 10-10 7-2 4-5 8-1 2-4 7-3 1-2 17-1z" fill="#07522C"/>
<path transform="translate(1757,812)" d="m0 0h27l20 3 21 7 4 3h7l14 5 3 3v8l8-11 8-7 12-6 15-4 8-1h23l21 4 15 6 7 4-6 17-3 7-6-2-16-6-11-3-9-1h-10l-12 2-10 5-5 6-1 3v10l4 6 10 6 27 8 15 4 16 6 9 6 7 6 5 8 3 10v16l-4 11-6 9-8 8-16 8-11 3-17 2-19-1-20-4-9-3-1 7-8 15-9 12-1 3h-2l-2 5-10 27-8 29-2 12v12l1 2 6-1 9-9 16-23 9-14 2-7 1-8h3v10l-3 19 8-6 10-9 11-8h5l2 2-1 15-1 11 14-11 11-7 6-3 2 1-7 4-12 8-15 12-4 10-5 16-8 18-7 10-2 2h-4l-1-6 2-8 5-14 8-14 9-11 4-11 2-10 1-12-7 4h-2v2l-8 7-9 8h-2v2l-7 1-2-10-7 11-10 15-8 10-8 7h-7l-4-6v-19l5-26-20 6-18 8-9 5-13 16-8 8-6 3h-5l-4-5-2-6v-13l4-23-30 10-16 8-5 1-1-5 2-6-6 3-2-1 9-5 6-15h2l-1 7-8 20 17-9 28-9 7-1 3-10 9-23v-3l-7 2-15-5-11-7-7-3-8 1-9 6-7 4-10 4-19 2h-19l-21-1-17-5-12-4h-8l-21 7-13 2-22 2h-6l-3-3 5-8 7-15 5-11 18 1-1-45v-40h-29v48l-11 7-11 4-5 1h-19l-14-4-12-7-8-8-6-9-5-15-1-6v-17l3-13 7-14 11-11 12-7 16-4h19l12 3 14 7 8 7 4-1 5-5 11-10-1-4-7-6 2-1 1-3 3-1 13 6 10 5 4 3 1-25h91l1 1 1 8 1-1 9 1 12 5 6 5v8h2l2-5 7-8 10-7 15-6z" fill="#BFC0C0"/>
<path transform="translate(245,812)" d="m0 0h22l21 3 16 5 9 3 1 2 4-1 12 5 10 8 2 4v7 1l8-10 8-8 14-9 11-5 16-4 7-1h21l20 4 12 5 10 6 5 2v-2l6-1 16 8 9 5 4 8 1-33h31v67h84l1-67h30l1 80v55l-1 29h-30l-1-1-1-28h-4l-5-2h-20l-8 4-3 1-2 4-2 7-3 22-5 12-7 8-10 5h-14l-10-4-5-3v-2l-6-3v-2l-5-2v-2l-8 1-10 7-5 3-12 6-18 5-17 2h-20l-16-3-15-5-13-7-10-6-11-6h-7l-9 6-6 6h-2v2l-19 8-17 4-13 1h-31l-15-3-15-5-12-7-12-11-1-3-3-1-7-14-1-9h2l-6-8-4-8-2-7v-15l3-10 6-9 8-7 7-4h2v-2l-4-2-6-5-7-11-2-7v-17l4-11 6-9 10-8 15-7 15-3z" fill="#BFC0C0"/>
<path transform="translate(1422,212)" d="m0 0h165l7 8 13 17 13 16 10 13 12 15 13 17 13 16 9 12 12 15 13 17 13 16 13 17 13 16 10 13 44 56 12 15 13 17 12 15 6 11 12 14 9 9 2 1v134h-34l-11-13-22-28-13-16-11-14-13-16-21-27-13-16-11-14-13-16-11-14-13-16-10-13-13-16-11-14-13-16-10-13-13-16-11-14-8-10-11-14-13-16-11-14-12-15-11-14-13-16-7-9-13-16-16-22-8-7-16-8-15-3-18-1z" fill="#05512B"/>
<path transform="translate(769,812)" d="m0 0h22l16 4 12 6 7 5 1-3 8 1 18 10 3 3v2l4 2 6 7 5 8 4 4 1 3v9h2l1-7 8-16 7-9 11-11 13-8 11-5 16-4 7-1h21l20 4 16 7 6 4h3l3-3 9 3 16 9 7 6 6 5 7 8 7 6 4 3 4 8 1-57h1v153l-12 6-7 10-3 4v-2l-8 7-4 4h-2v2l-7 4-13 6-18 5-16 2h-20l-21-4-19-8-14-8-14-13-5-5-1-3-5-2-3-2-7 1-3 9-5 14-8 9h-2v2l-9 4h-14l-9-4-7-6-4-6-2-6v-6l2-3h-10l-1-105-2-7-8-1-9-1-12 3-6 3-10 10-6 13-2 6-1 7-1 58-1 11-4 9-2 4h-2v2l-4 2h-7l-8-5-3-3v-5l-7-1-17-1v-164h29v19l5-5 11-8 11-5z" fill="#BFC0C0"/>
<path transform="translate(548,212)" d="m0 0h210v18l-20 2-13 4-6 3-8 7-5 9-1 4v378l3 13 6 9 8 7 8 4 14 4 13 1v17h-208v-17l15-2 16-7 8-8 4-8 2-6 1-7v-364l-3-14-4-8-8-9-16-8-6-2-9-1-1-1z" fill="#05512B"/>
<path transform="translate(233,175)" d="m0 0 5 1 1 1 1 24 8 11 5 4 12 6v-2l3 1 7 12v3l1 1 1 13 7 16 9 15 7 8 10 22 9 9 4 10 6 26 5 16 5 10 2 5 4 4 10 19 1 5 1 2v26l-2 8-2 3-2 6-2 3h2l1-2-1 8-6 16-2 5h-14l-6 5-3 5-7 5-7 11-2 3-1 6v13l-4-3v-2h-2l5 7 4 2v6l-5 4h-8l-2-4-7-12-6-8-1-3-7 2v2l-4-1-9-3v12l2 13 4 2-2 4-3 2h-5v-2l-5-2v-2l-3-1-2-10-2-1v-22l-1-9-5-5-2-1v-2l-17-4-10-2-13-1-6-10-7-13-5-7-1-17-1-4v-16h1l1 8 9 17 6 11 6 9 3 5 5 7-2-4-2-3v-3h-2l-13-22-9-17-1-8-1-1v-15l3-17 10-13 4-9 2-9v-20l-3-1 1-3 4-1 1 1 1 31 4-17 2-16v-19l-3-16-1-4h-2l-1 12-3 14h-1l1-15 1-11-9 9-13 8-11 5-4 1h-17l-3-3-1-5 3-2-2-1 2-1 4 2-1 5 12-1 7-3 9-6 4-5-9 7h-28l-3-3-2-6v-14l4 2-2-4h-2l1-6h8l-7-2 1-5 4-6 8-3h6l9 5h4l-1-3-13-6-11 1 1-7 4-11-1-14-3-6v-2l-4-2v-8l4-2 1-5 2-5 4 1 4 9 1 4h7l3-2 2-3 3 8 5 2v2l4 1 1 3 2-1 1-3 4-1v-9l4-9 3-2 1-7 6-2 23-1 8 2 1-9z" fill="#FAFAFA"/>
<path transform="translate(821,212)" d="m0 0h233v18l-1 1-21 2-24 5-21 7-19 9-11 7-11 9-10 9-14 15-7 8-12 13-9 10-12 13-7 8-15 16-7 8-15 16-7 8-11 12-8 9 1 4 13 18 16 21 12 17 15 20 13 18 12 16 14 19 13 18 15 20 14 19 13 18 13 17 7 7 8 6 13 8 17 7 20 5 27 3v16h-131l-21-8-17-8-16-10-11-9-9-10-7-11-14-18-12-16-11-15-13-17-6-8-16-21-14-19-16-21-14-19-6-8 1-4 14-17 11-14 11-13 11-14 14-17 11-14 14-17 8-10 26-32 8-10 10-13 6-14 2-5 2-10v-13l-4-11-5-6-14-7-9-2-30-1z" fill="#05512B"/>
<path transform="translate(1904,812)" d="m0 0h23l21 4 15 6 7 4-6 17-3 7-6-2-16-6-11-3-9-1h-10l-12 2-10 5-5 6-1 3v10l4 6 10 6 27 8 15 4 16 6 9 6 7 6 5 8 3 10v16l-4 11-6 9-8 8-16 8-11 3-17 2-19-1-20-4-9-3-1 7-8 15-9 12-1 3h-2l-2 5-10 27-8 29-2 12v12l1 2 6-1 9-9 16-23 9-14 2-7 1-8h3v10l-3 19 8-6 10-9 11-8h5l2 2-1 15-1 11 14-11 11-7 6-3 2 1-7 4-12 8-15 12-4 10-5 16-8 18-7 10-2 2h-4l-1-6 2-8 5-14 8-14 9-11 4-11 2-10 1-12-7 4h-2v2l-8 7-9 8h-2v2l-7 1-2-10-7 11-10 15-8 10-8 7h-7l-4-6v-19l5-26-13 4-11 2-9 4-11 5h-2l1-6 5-13 2-7h-2l-1 6-6 16-2 8-5 5-8 10-8 8-4 2h-5l-3-5v-19l5-20 4-8 12-13 8-12 2-1 3-7 6-10 6-13 2-6 24-7 18-9-1-5-7-17h-3l-16 8-15 4-14 2h-12l-14-2-10-3-8-5-6-7-1-3v-10l4-8 7-5 10-3 11-1 47-1v-24h-22l-29-1-9-2-7-5-4-6-1-3v-10l3-6 8-7 11-4 4-1h26l16 3 17 6h2l7-22h9l14 5 3 3v8l8-11 8-7 12-6 15-4z" fill="#BEBFBF"/>
<path transform="translate(245,812)" d="m0 0h22l21 3 16 5 9 3 1 2 4-1 12 5 10 8 2 4v7 1l8-10 8-8 14-9 11-5 16-4 7-1h21l20 4 12 5 11 7 10 9v4l-17 17-4-2-10-8-14-6-8-2h-19l-15 4-11 6-10 10-5 8-5 14-1 6v16l3 12 7 14 9 10 13 8 14 4h22l13-4 12-7 7-7 3 1 14 14 3 2-1 4-7 7-14 9-15 6-13 3-9 1h-10l-21-3-16-6-14-9-12-11-8-11-4-5-8 8-9 4-2 8v3l-1 5-10 6-17 6-13 3-19 2h-13l-17-2-12-3-16-8-9-7-5-6-4-8-2-7v-15l3-10 6-9 8-7 7-4h2v-2l-4-2-6-5-7-11-2-7v-17l4-11 6-9 10-8 15-7 15-3z" fill="#BFC0C0"/>
<path transform="translate(952,812)" d="m0 0h21l20 4 16 7 13 9 13 13 8 13 6 16 2 9v27l-4 15-8 16-9 12-8 8-16 10-19 7-19 3h-10l-21-3-16-6-14-9-10-9-8-9-8-14-5-16-1-6v-25l3-15 6-14 8-12 13-13 13-8 11-5 16-4z" fill="#05512B"/>
<path transform="translate(1232,210)" d="m0 0h14l17 2 19 5 18 8 11 7 10 8 10 10 9 13 8 17 4 17 1 9v15l-4 24-7 21-8 17-8 14-12 18-11 14-12 14-12 13-9 8-2 3h-2l3-9 9-24 6-21 3-18v-29l-4-18-6-14-7-11-9-10-5-5-8-7-13-8-13-5-4-1h-29l-15 4-18 8-18 11-16 13-11 10-1-4 9-27 11-23 12-18 11-13 12-11 13-9 19-10 18-5z" fill="#05512B"/>
<path transform="translate(1382,561)" d="m0 0 1 3-13 55-17 73h-249l4-7 13-18 11-16 12-17 14-20 10-14 172-1 14-7 10-8 7-7 9-13z" fill="#05512B"/>
<path transform="translate(1113,815)" d="m0 0h1l1 11 5-3 16 4 8 7 6 12 2 16 1 34v39l3 9 1 4 5 1 37 2 1 1v7l14-6 3-5 3-8 12 15 10 8 13 8-6 9-12 19-11 23-8 21-11 10-14 9-5 2h-9l-5-5 1-7 5-3 5-4 1-3-5 6-4 1 1-5 4-6 3-2-4 1-5 5-2 4h-10l-9-3-3-2 1-10h-2l-2 10-8 14-7 10-3 1v-29l-2 9-11 9-11 7-5 2h-7l-6-3-1-7 4-4 7-5 2-5-1-1-1 4-5 5-4 2 1-5 6-8 3-1-5 1-5 5-3 7-2 6-9 7-6 3h-7l-4-5-4-10v-10l10-11 13-18 8-16 2-6h2v-11h109l-1-25-64-1-20-1-1-95z" fill="#BFC0C0"/>
<path transform="translate(1483,812)" d="m0 0h22l20 4 16 7 11 8 7 6-1 4-10 9-7 7-4-1-7-6-14-7-12-3h-19l-16 4-12 7-10 10-7 14-3 13v17l4 16 5 10 10 11 12 7 14 4h19l13-4 10-5 3-2 1-48h29l1 40v45h-18l-7 17-4 7h10v1l-11 1-7 12-4 7-9 12-10 28 1 1 10-14 11-11 5-1 1 1-1 9-2 16 8-2 10-6 9-7 2 1-8 7-5 2v2l-11 5h-5l-2-2v-12l2-6 1-6-8 6-8 10-9 13-5 9-3 1 1-8 6-19-4 5-6 10-7 10-8 11-7 8-6 4-6-1-3-5-1-5v-10l2-13 5-19-2-1 3-3 7-21 5-11-8 1h-27l-12-2-7-4v-2l9 3 7 2h19l20-2 10-22 3-6h-10l-17-4-16-8-10-8-10-10-8-13-5-12-3-15v-23l3-17 6-14 8-12 9-10 12-9 16-8 17-4z" fill="#05512B"/>
<path transform="translate(769,812)" d="m0 0h22l16 4 12 6 9 8 7 10 5 11 4 17v110h-30l-1-1-1-103-2-7-8-1-9-1-12 3-6 3-10 10-6 13-2 6-1 7-1 58-1 11-4 9-2 4h-2v2l-4 2h-7l-8-5-3-3v-5l-7-1-17-1v-164h29v19l5-5 11-8 11-5z" fill="#05512B"/>
<path transform="translate(1904,812)" d="m0 0h23l21 4 15 6 7 4-6 17-3 7-6-2-16-6-11-3-9-1h-10l-12 2-10 5-5 6-1 3v10l4 6 10 6 27 8 15 4 16 6 9 6 7 6 5 8 3 10v16l-4 11-6 9-8 8-16 8-11 3-17 2-19-1-20-4-9-3-1 7-8 15-9 12-1 3h-2l-2 5-10 27-8 29-2 12v12l1 2 6-1 9-9 16-23 9-14 2-7 1-8h3v10l-3 19 8-6 10-9 11-8h5l2 2-1 15-1 11 14-11 11-7 6-3 2 1-7 4-12 8-15 12-4 10-5 16-8 18-7 10-2 2h-4l-1-6 2-8 5-14 8-14 9-11 4-11 2-10 1-12-7 4h-2v2l-8 7-9 8h-2v2l-7 1-2-10-7 11-10 15-8 10-8 7h-7l-4-6v-19l5-26-13 4-4-1 17-6h2l3-10 8-22 1-2-9 1h-26l-12-3-4-3 5 1 14 3h15l14-1 4-1 13-27 7-9 2-3-6-2-10-7 3-9 7-15 7 4 14 7 14 4 11 2h18l13-3 8-5 3-4 1-3v-11l-3-5-8-5-19-6-26-7-13-5-12-7-7-7-6-12-2-10 1-13 4-12 8-10 9-7 10-5 15-4z" fill="#05512B"/>
<path transform="translate(1757,812)" d="m0 0h27l20 3 21 7 3 3-7 22-3 1-21-7-12-2h-26l-13 4-6 4-5 6-1 3v10l3 6 5 5 3 2 9 2 51 2 1 14v10l-1 1-47 1-15 2-9 4-5 5-2 5v10l4 7 6 5 9 4 9 2 10 1h12l19-3 12-4 17-8 7 16 2 5-1 4-16 8-18 6-8 1-2 9-10 19-3 4-2 5h-2l-2 5-4 5-9 11-6 7-5 16-2 9v19l2 4 7-1 8-7 8-9 5-7h2l1-8 6-16 2-6h2v6l-5 11-3 9 16-8 9-3 4 1-21 9-9 5-13 16-8 8-6 3h-5l-4-5-2-6v-13l4-23-30 10-16 8-5 1-1-5 2-6-6 3-2-1 9-5 6-15h2l-1 7-8 20 17-9 28-9 7-1 3-10 9-23 18-33-10 1-23-2-15-4-13-7-10-8-7-11-3-14 1-12 3-9 6-9 10-8 4-2h3v-2l-5-2-5-5-6-9-3-7-1-6v-9l3-12 6-10 10-9 14-7 12-3z" fill="#05512B"/>
<path transform="translate(516,814)" d="m0 0h25v67h84l1-67h30l1 80v55l-1 29h-30l-1-50v-20h-64l3 6-1 8-6 8-6 1-3-3v-2h-2l-1-10 1-6-4-2v56l-1 14h-30v-163z" fill="#05512B"/>
<path transform="translate(245,812)" d="m0 0h22l21 3 16 5 8 3-1 7-6 17-3 1-17-6-16-3h-26l-13 4-6 4-4 5-2 7 1 8 5 8 7 4 9 2 50 2v24l-1 1-44 1-5 1 2 3-1 5-7 2-2-3v-7l-10 3-6 4-4 7-1 9 4 9 8 6 12 4 13 2h14l18-3 11-3 17-9 2 1 8 19-1 5-10 6-17 6-13 3-19 2h-13l-17-2-12-3-16-8-9-7-5-6-4-8-2-7v-15l3-10 6-9 8-7 7-4h2v-2l-4-2-6-5-7-11-2-7v-17l4-11 6-9 10-8 15-7 15-3z" fill="#05512B"/>
<path transform="translate(1527,514)" d="m0 0h1l8 47 6 32 7 20 8 16 7 11 9 10 8 8 12 8 18 7 8 2v17h-197v-17l17-4 16-6 15-8 10-8 6-5 11-14 9-17 6-17 6-34 7-38z" fill="#05512B"/>
<path transform="translate(1356,825)" d="m0 0 5 1 14 7 13 10 6 5v2l3 1v2l3 1v2l4 2 3 3 1 10-2 16v23l4 18 8 16 7 9 9 9 14 9 12 5 14 3 10 1-1 5-6 12-4 9-6 1-11-4-10-8-16-16v-2h-2v-2h-2l-5-5-2-1h-6l-6 2v2h-2l-2 4-4 5-6 5-5 5-11 8-10 6-21 7-9 2-9 1h-21l-20-3-12-4-16-9-3-3 1-6 6-16 18 4 11 1h10l19-3 19-7 14-9 10-9 10-15 7-16 3-15v-19l-3-15-5-13-7-12-11-12-7-6z" fill="#818282"/>
<path transform="translate(1287,839)" d="m0 0h18l12 3 12 6 10 9 7 8 5 11 3 15v11l-3 14-7 14-9 10-10 7-10 4-8 2-11 1-15-2-12-5-10-6-8-8-7-12-5-19v-14l4-15 5-10 9-10 9-7 12-5z" fill="#818282"/>
<path transform="translate(953,839)" d="m0 0h19l16 5 11 7 8 7 7 11 4 10 2 9v16l-3 12-4 9-6 9-8 8-12 7-13 4h-22l-13-4-11-6-8-7-7-10-5-11-2-8v-23l4-13 5-9 9-10 10-7 10-4z" fill="#818282"/>
<path transform="translate(1763,212)" d="m0 0h191v18l-18 2-16 6-14 10-7 7-6 8-8 13-8 20-4 18-11 75-2-2-12-55-6-28-7-21-7-13-9-12-10-10-11-7-10-5-14-4-11-1z" fill="#05512B"/>
<path transform="translate(406,812)" d="m0 0h21l20 4 12 5 11 7 10 9v4l-17 17-4-2-10-8-14-6-8-2h-19l-15 4-11 6-10 10-5 8-5 14-1 6v16l3 12 7 14 9 10 13 8 14 4h22l13-4 12-7 7-7 3 1 14 14 3 2-1 4-7 7-14 9-15 6-13 3-9 1h-10l-21-3-16-6-14-9-12-11-8-11-7-14-4-15-1-7v-18l3-16 6-15 7-11 9-10 8-7 14-8 10-4z" fill="#05512B"/>
<path transform="translate(1827,825)" d="m0 0h9l14 5 3 3v11l-2 7-1 13-1 14-1 1-15 3-8 3-1 4 6 6v2h2l5 11 1 4v7l-3 11-5 7-4 1-1 3h-3l-16 8-15 4-14 2h-12l-14-2-10-3-8-5-6-7-1-3v-10l4-8 7-5 10-3 11-1 47-1v-24h-22l-29-1-9-2-7-5-4-6-1-3v-10l3-6 8-7 11-4 4-1h26l16 3 17 6h2z" fill="#BFC0C0"/>
<path transform="translate(1083,814)" d="m0 0h30l1 42v95h20l64 1 1 1v25l-49 1h-37l-23-1v11h-2l-1 6-8 16-11 15-9 11-3 3v15l-2-3-1-7-3-1 2-1v-18l2-15 6-20 6-11 5-6 8-4 3-1z" fill="#05512B"/>
<path transform="translate(87,812)" d="m0 0h25l15 2 17 4 20 8 9 5-3 10-6 14-5-1-16-7-17-5-11-2v15h2l1-4 2-2h10l3 2 1 5-6 8-3 2-6-1-2-3v-3h-2v119h-31v-138l-14 2-16 5-16 7h-3l-9-20 1-4 16-8 18-6 17-3z" fill="#05512B"/>
<path transform="translate(1588,814)" d="m0 0h87v26l-29 1v110l29 1v26l-3 1h-42l-45-1v-26h30l-1-111-29-1v-25z" fill="#05512B"/>
<path transform="translate(172,830)" d="m0 0h11l7 3 2 7-4 11v17l4 11 8 10 6 4v2l-8 4-6-4-5-6-6-2h-13l-8 2-5 5-2 12-1 63-1 11-3 12-8 11-7 5-10 2-11-2-8-5-5-6-4-8-1-7 2-2-7-1v-1h26v-119h2l2 5 6 1 5-5 3-5v-4l-3-1h-10l-3 5h-2v-15l11 1 20 6 18 8 1-5 7-17z" fill="#818282"/>
<path transform="translate(656,823)" d="m0 0 2 2 5-2 12 3 8 5 5 5 5 8 2 6 1 8v125l-4 10-4 5-4 4h-2v2l-8 5-3 1h-12l-10-3-6-4-6-7-3-9v-5l2-3h-9v-1h29z" fill="#C0C1C1"/>
<path transform="translate(1962,895)" d="m0 0h6l13 7 11 8 8 7 8 14 4 13 1 11-2 12-4 12-7 11-4 5-13 10-8 4-17 5-14 2h-23l-22-3-10-4-1-2h-14l-1 1-9 1h-15l3-2 16-3-13-2-4 3 2-4 9-15 4-8 1-5 9 2 20 4 19 1 22-3 15-6 9-6 7-7 7-14 1-4v-16l-4-12-7-9-5-5 2-1z" fill="#BFC0C0"/>
<path transform="translate(1091,979)" d="m0 0h1v8l4 9v2h2l5 7 9 4 14 3 22 1h50l12-3 11-5 5-3 6-8 6-5 3 1-4 9-11 23-8 21-11 10-14 9-5 2h-9l-5-5 1-7 5-3 5-4 1-3-5 6-4 1 1-5 4-6 3-2-4 1-5 5-2 4h-10l-9-3-3-2 1-10h-2l-2 10-8 14-7 10-3 1v-29l-2 9-11 9-11 7-5 2h-7l-6-3-1-7 4-4 7-5 2-5-1-1-1 4-5 5-4 2 1-5 6-8 3-1-5 1-5 5-3 7-2 6-9 7-6 3h-7l-4-5-4-10v-10l10-11 13-18 8-16 2-6h2z" fill="#FAFAFA"/>
<path transform="translate(509,870)" d="m0 0h1v87l-3-1-4-4-15-2-5 1-1 2-12-11-6-5-1-2-4 2-8 7-14 7-5 1h-14l-2-1-3-5-8-8-4-7-1-5v-15l2-8 4-7 4-5 10-8 11-4 12-1 15 3 16 5h13l13-4 6-2 2-9z" fill="#FCFCFC"/>
<path transform="translate(1594,869)" d="m0 0 9 1 5 3h5l1 1v77h-12l-7-2-2-13-5-17v-3h-2l-5-5-10-5-9-1-4 2v-13h-30v48l-11 7-11 4h-12l-6-5v-2l-4-2-5-7-3-9v-18l3-10 7-9 4-2 1-3 9-5 6-2 15-1 14 3 8 4 11 3h10l10-4 14-11 3-3z" fill="#FCFCFC"/>
<path transform="translate(362,413)" d="m0 0 7 6 11 13 6 9v19l1 5h2l6 9 3 16v29l-4 18-15 31-8 16-7 9-8 8-8 6h-2l-1-15v-17l7-25 5-25 1-24-4-2-6-4 1-7 8-22 5-21z" fill="#F9F9F9"/>
<path transform="translate(1044,857)" d="m0 0 5 1 5 4 10 14 7 14 4 15v22l-4 18-9 19h-2l-2 5-7 8-13 10-10 6-14 5-15 3-8 1h-17l-21-5-16-6-11-8-11-9-3-3-1-5 5 2 12 6 13 4 17 2h10l19-3 19-7 16-10 9-9 10-15 6-14 3-12v-27l-4-15-3-10z" fill="#818282"/>
<path transform="translate(764,839)" d="m0 0h18l12 4 8 6 6 8 3 7-1 3-8-1-9-1-12 3-6 3-10 10-6 13-2 6-1 7-1 58-1 11-4 9-2 4h-2v2l-4 2h-7l-8-5-3-3v-5l-7-1v-1h14v-103l4-13 6-10 9-8 10-4z" fill="#818282"/>
<path transform="translate(1973,826)" d="m0 0h6l9 6 7 6 3 5 1 4v14l-5 9-8 7-12 4-20 2-2 2 2 4-1 1h-7l-3 1-17-5-28-8-12-6-5-6-1-2v-10l4-7 6-5 11-4 8-1h10l13 2 21 7 8 4 3-10 5-13z" fill="#818282"/>
<path transform="translate(1485,839)" d="m0 0h19l12 3 14 7 8 7 4-1 11-11 10 2 4 5 2 5-1 8-5 5-10 2-24-6-9-1-13 1-11 3-14 8-4 2-2 4-8 11-5 14-1 7v9l2 12 4 8v6l-6-2-9-7-8-9-5-10-4-16v-17l3-13 7-14 11-11 12-7z" fill="#818282"/>
<path transform="translate(408,839)" d="m0 0h19l13 4 12 6 9 8 4-2 12-12 8 4 5 8v8l-5 5-5 2h-9l-21-5h-19l-9 2-10 5-13 10-6 9-5 14-1 5v14l3 13 3 8h-2v2l-5-2-8-6-8-9-8-16-2-10v-16l3-13 6-12 9-10 7-6 11-5z" fill="#818282"/>
<path transform="translate(1584,814)" d="m0 0 4 1h-3v25h29l1 1v34l-9-2-6-3-9 1-9 8-10 7-8 3h-10l-13-4-9-4-13-2-13 1-10 4-5 3-5 5-6 8-3 10v18l4 10 5 7 2 1v2l4 2 2 2 7 1v1h-19l-14-4-1-7-4-8-2-12v-9l3-14 5-10 9-12 10-7 10-5 17-3h8l14 3 17 4 9-2 4-4 1-8-4-8-3-2-6-1 2-4 1-4-8-7 2-1 1-3 3-1 13 6 10 5 4 3z" fill="#BFC0C0"/>
<path transform="translate(1412,938)" d="m0 0 3 1 8 12 11 11 14 9 12 5 14 3 10 1-1 5-6 12-4 9-6 1-11-4-10-8-16-16v-2h-2v-2h-2l-5-5-2-1h-6l-6 2v2h-2l-2 4-4 5-6 5-5 5-11 8-10 6-21 7-9 2-9 1h-21l-20-3-12-4-16-9-3-3 1-6 3-6 15 6 11 5 17 4 9 1h11l19-3 16-5 16-9 6-5h2v-2l4-4 9-11 11-16 3-2z" fill="#BFC0C0"/>
<path transform="translate(263,534)" d="m0 0 3 1 2 5 4-6 3 1 9 14v2h2l5 6 2 1 9-1 5-3h2l1 4 1 14v15l-3 11 1 19 2 4-1 5-13 9-7 8-4-2-5-12-4-2-1-2-12-4-9-4-1-6-1-33 1-11 1-2 7-3 7-6-3-9-3-8z" fill="#F8F8F8"/>
<path transform="translate(1311,879)" d="m0 0h13l14 4 4 2v2l4 2 2 3 5 1v16l-4 12-7 12-8 8-13 8-9 3h-14l-6-5v-2l-4-2-6-8-3-8-1-11 3-11 6-12 7-7 12-6z" fill="#FCFCFC"/>
<path transform="translate(979,879)" d="m0 0h13l14 5 7 6 1 2 5-1v19l-4 12-7 11-9 9-12 7-9 3h-14l-8-7-8-11-3-9v-14l3-10 8-11 9-7 8-3z" fill="#FCFCFC"/>
<path transform="translate(172,830)" d="m0 0h11l7 3 2 7-4 11v17l4 11 8 10 6 4v2l-8 4-6-4-5-6-6-2h-13l-8 2-5 5-2 12-1 63-1 11-3 12-8 11-7 5-10 2-11-2-8-5-5-6-4-8-1-7 2-2-7-1v-1h21l4 9 6 3 9-2 3-4 3-10 2-19v-55l2-14 5-9 7-5 5-2 21-3 5-1 2-6v-7l-4-6-5-2h-6l1-7 2-7z" fill="#BFC0C0"/>
<path transform="translate(1831,1013)" d="m0 0h7l-1 6-9 25-3 3-24 8-9 4-11 5h-2l1-6 5-13 2-7h-2l-1 6-6 16-2 8-5 5-8 10-8 8-4 2h-5l-3-5v-19l5-20 4-8 12-13 8-12 6-1 16 1 20-1z" fill="#F9F9F9"/>
<path transform="translate(510,814)" d="m0 0h6v1h-5v163h-1l-1-107-3 9-11 5-8 2h-13l-16-5-15-3-12 1-11 4-5 4h-2l-1 3-5 5-4 7-2 8v15l3 9 9 10 3 3v3l13 1v1h-22l-14-4-2-1 1-4-5-14-1-6v-14l3-11 4-9 6-9 13-10 10-5 9-2h19l21 5h9l8-4 1-2v-8l-5-8-6-3 2-6-10-10 4 1v-2l6-1 16 8 9 5 4 8z" fill="#BDBEBE"/>
<path transform="translate(200,500)" d="m0 0 13 1 15 4 7 6 1 3v22l2 12-4-1-6-10v-2l-3 2 2 6 4 6 5 4 4 7 8 1v24l2 31 3 10v5l-7-6-3-2v-2l-17-1-3-10-1-15-12-23-6-15-2-7v-34z" fill="#F8F8F8"/>
<path transform="translate(1976,920)" d="m0 0h5l7 6 6 8 4 11v15l-2 9-6 10-4 5h-2v2l-11 7-13 5-15 3-11 1h-13l-18-3-14-4-14-10-4-5 1-5-2-1 9 2 17 3 19 1 22-3 15-6 9-6 7-7 7-14 1-4z" fill="#818282"/>
<path transform="translate(656,840)" d="m0 0 2 3 2-2 9 1 6 5 4 10 2 31v49l-1 32-2 12-5 8-6 3h-8l-5-2-5-5-1-4 1-1-6-1v-1h13z" fill="#818282"/>
<path transform="translate(793,864)" d="m0 0 9 1 8 1 2 2 1 6v89h-1l-1-80-4 1-7-3h-9l-10 5-5 4-4 9-2 10-1 29v21l-1 20-3 11-4 9-5 5-8 5-6 2h-8l-10-3-9-7-6-7-3-6-1-1v-6l2-1-6-1v-1h16l8 1v6l6 5 4 2h7l4-1v-2h2l2-5 3-8 1-14 1-55 2-10 5-12 4-6 10-10 11-4z" fill="#BFC0C0"/>
<path transform="translate(542,908)" d="m0 0 5 1-1 9v8h2l3 4 6-1 5-7 1-8-2-6h64l1 20v49h-1v-45l-4 1-5-1h-24l-11 3-8 6-4 7-3 8-3 22-4 9-4 4-9 2-10-5-3-4 1-4-9-1v-1h16z" fill="#818282"/>
<path transform="translate(842,846)" d="m0 0 7 5 8 10 5 10 5 14 2 20v34l-1 9-1 22-2 10-6 9-5 3h-9l-5-3-4-5 1-5h-9v-1h16l-1-110-4-17-1-4z" fill="#818282"/>
<path transform="translate(1675,835)" d="m0 0 2 4 5 1 4 3 2 4v8l-4 7-5 5-7 10-2 5-2 22v28l2 19 4 1h-28l-1-5v-106l1-1h29z" fill="#818282"/>
<path transform="translate(1837,950)" d="m0 0 7 1 2 2 1 8 13 8 2 1-2 4-7 10-12 25-5 2-14 1h-15l-14-3 5 2 6 1h35l-1 2-17 1-7 1-21 1-15-1-3-1 1-5 8-14 5-11 2-6 24-7 18-9-1-8z" fill="#979999"/>
<path transform="translate(333,495)" d="m0 0h7l11 10v23l-10 48-3 17-1 1-16 2-6 7h-2v-5l2-7 1-5v-13l-1-22 5-6 3-10-1-13 1-6-2 1v19l-2 9-3 4h-4l-2-12-2-3v-12l9-14h2v-2l6-3 4-6z" fill="#F8F8F8"/>
<path transform="translate(243,838)" d="m0 0h26l16 3 17 6h2l3-8h7l6 5 3 6-2 8-1 2-9 3h-39l-11 4-6 8-3 6h6v1h-18l-12-3-7-6-4-10 1-9 4-6 6-5 11-4z" fill="#818282"/>
<path transform="translate(1823,837)" d="m0 0 1 3h6l2 1v2l4 2 2 6v5l-5 5-13 2h-8l-9-1-15 1-9 3-6 5-5 10 3 1h-17l-9-2-7-5-4-6-1-3v-10l3-6 8-7 11-4 4-1h26l16 3 17 6h2z" fill="#818282"/>
<path transform="translate(1849,871)" d="m0 0h2l5 12 3 4v9l5 12 6 9 7 8 8 7 13 10v4l-5 2v4h-7l-16-6-10-6-3-2-8 16-3 3-2-5-7-1-4 4h-2l-5-12-1-6 5-1 5-8 2-9v-7l-4-11-1-4h-2l-7-8 1-4 5-3 12-3 7-1z" fill="#FBFBFB"/>
<path transform="translate(1113,815)" d="m0 0h1v28l4-2 8 1 8 7 3 7 1 6 1 21v49l2 12 1 5 2 1 16 1v1h-26l-20-1-1-95z" fill="#818282"/>
<path transform="translate(1504,1006)" d="m0 0h9l-1 5-5 13-4 14-7 14-8 11-8 12-8 11-9 10-4 2-5-1v-15l4-20 6-21 9-24 4-7 10-2z" fill="#F9F9F9"/>
<path transform="translate(1805,907)" d="m0 0 7 1 4 5 1 5-4 7h-2v2l-10 3-20 3-11 4-8 6-2 9 2 2h-7l-12-3-9-5-7-8-1-3v-10l4-8 7-5 10-3 11-1z" fill="#818282"/>
<path transform="translate(290,897)" d="m0 0h1v10l3-1 6 4 3 6-2 6-2 4-10 4-7 1-15 2-13 4-4 2-2 4-3 9 1 2-11-1-12-4-8-6-3-4-2-6 1-9 4-7 5-4 8-3h4l2 9 7-1-1-7-2-2 7-1 44-1z" fill="#818282"/>
<path transform="translate(362,964)" d="m0 0 5 2 10 6 14 5 21 3h10l19-3 16-6 6-2 10-4h9l7 3 3 6-1 8-6 7-10 6-17 5-12 2h-17l-16-3-15-5-12-6-7-5-5-5-8-6-2-2z" fill="#818282"/>
<path transform="translate(308,968)" d="m0 0 2 1-1 1h13l6 3 2 3-1 9-9 8-8 4-14 3-22 2h-9l-20-3-14-4-12-6-9-8-5-8 2-1 14 5 11 2 11 1h13l25-3 19-6z" fill="#818282"/>
<path transform="translate(1973,826)" d="m0 0h6l9 6 7 6 3 5 1 4v14l-5 9-8 7-12 4-20 2-2 2 2 4-1 1h-7l-3 1-17-5-11-3 1-8 3-5 9-7 3-1h40l6-3 2-4-1-7-4-5-3-2-5-1 1-8 2-5z" fill="#BFC0C0"/>
<path transform="translate(386,564)" d="m0 0 2 2-1 13-8 33-1 23-1 5v34l-1 7-1 1-1 20-1 9-5 7h-4l-5-17-8-19 1-5 3-8 2-11 2-31 3-16 9-4 1-3 1-12 5-8 6-15z" fill="#F3F3F3"/>
<path transform="translate(975,864)" d="m0 0h19l12 4 10 5 4 15v16h-1l-1-12-4 1-6-7-12-5-4-1h-13l-12 3-6 4-5 4-7 10-3 10v14l4 10 8 11 4 3v2l12 1v1h-22l-13-4-3-3 2-1-6-14-1-6v-14l4-15 5-10 9-9 10-7 9-4z" fill="#BFC0C0"/>
<path transform="translate(1316,863)" d="m0 0 13 1 19 8 2 1 3 11 1 7v11h-1l-1-9-5-1-5-5v-2l-10-3-8-2h-13l-10 3-9 6-5 6-6 12-2 9 1 11 4 10 6 7 2 1v2l4 2v2l11 1v1l-11 1-15-2-10-4-1-3 1-2-5-12-1-6v-13l4-15 6-12 10-10 11-7 13-4z" fill="#BFC0C0"/>
<path transform="translate(1119,823)" d="m0 0 14 3 6 3 6 7 5 10 2 16 1 34v39l3 9 1 4 5 1 37 2 1 1v7h-1l-1-6-38-1-16-1-3-2-2-8-1-16v-45l-1-18-3-12-8-7-8-1-4 1v-16z" fill="#BFC0C0"/>
<path transform="translate(541,817)" d="m0 0h1l1 9 2-2h8l11 4 9 9 4 12 4 22 2 8 3 1 39 1v1h-59l-25-1z" fill="#C0C1C1"/>
<path transform="translate(1557,894)" d="m0 0h1v32l3-2 8 1 5 5 5 10 2 12v22l-2 10-5 6-8 6-15 3-10 1-2 1 2 1v2l-12-1 2-6 7-15 2-4 18 1-1-45z" fill="#818282"/>
<path transform="translate(1199,970)" d="m0 0h1v8l8 1 2 4-1 6-7 6-4 2-20 2h-48l-10-2-6-4-5-4-3-5v-5h-9v-1h102z" fill="#818282"/>
<path transform="translate(75,840)" d="m0 0h9l1 55-2 1v-12l-7 2h-10l-11-3-8-6-4-5-3-12 4-9 3-2 15-6z" fill="#BFC0C0"/>
<path transform="translate(164,81)" d="m0 0 4 1 11 11 10 13 9 15v3h2v-4l3-1-1 6-11 27-3 6-1 1h-8l-6-10 1-6-2-4-5-21-4-18v-17z" fill="#F7F7F7"/>
<path transform="translate(1701,864)" d="m0 0h2l2 9 6 11 2 4 4 2 5 3v2l-10 5-8 7-6 11-2 12 1 12 4 11 2 3-1 3-5-4-10-5-4-7-2-21v-14l1-16 4-9 4-5 8-6z" fill="#F9F9F9"/>
<path transform="translate(1044,857)" d="m0 0 5 1 5 4 10 14 7 14 4 15v22l-4 18-9 19h-2l-2 5-7 8-13 10-10 6-14 5-15 3-8 1h-17l-21-5-16-6-11-8-11-9-3-3-1-5 5 2 10 5 4 5 3 3 8 5 7 3 26 5 16 1 19-2 18-6 12-8 6-5h2v-2h2l2-4 7-11 6-13 3-11 2-17-3-19-3-10-7-11-4-6-6-2-3-10z" fill="#979999"/>
<path transform="translate(1675,953)" d="m0 0h1l1 14 5 3 4 5 2 3 1 8-5 7-7 4-10 2-23 1-15-2-8-4-5-4-2-4 1-7h-13v-1h73z" fill="#818282"/>
<path transform="translate(168,843)" d="m0 0 9 2 4 2 4 6v7l-3 7-6 1-20 3-12 6-2 5-2 4-2 18v54l-3 21-4 8-4 3-7 1-7-4-3-9 5-1 1-15h1l1 19 7-1 4-6 2-13v-45l2-31 6-11 4-2v-2l10-6 10-2 9-2v-7l-6-2 1-6z" fill="#979999"/>
<path transform="translate(266,135)" d="m0 0h1l1 25v17l4-4 6-11 2-2-1 7-4 8-6 10-4 9-3 18-5 1-6-5-6-8-1-3v-22h2l2-6 7-14 7-11z" fill="#F4F4F4"/>
<path transform="translate(1976,920)" d="m0 0h5l7 6 6 8 4 11v15l-2 9-6 10-4 5h-2v2l-11 7-13 5-15 3-11 1h-13l-18-3-14-4-14-10-4-5 1-5-2-1 9 2 6 2 2 1 2 6 8 5 20 4h27l21-4 12-6 4-4h2l7-14 2-13-2-12-5-8-1-3-7-2z" fill="#979999"/>
<path transform="translate(1553,844)" d="m0 0 10 2 4 5 2 5-1 8-5 5-10 2-24-6-9-1-13 1-11 3-14 8-4 2-2 4-8 11-5 14-1 7v9l2 12 4 8v6l-6-2-2-3-1-6-2-8-1-9v-9l3-13 4-9 5-8 5-6h2l1-3 11-8 13-5 11-2h12l25 4 5-1 4-4-2-6h-7l2-4z" fill="#979999"/>
<path transform="translate(477,843)" d="m0 0 8 4 5 8v8l-5 5-5 2h-9l-21-5h-19l-9 2-10 5-13 10-6 9-5 14-1 5v14l3 13 3 8h-2v2l-5-2-4-4 1-4-2-8-1-6v-13l3-12 8-15 9-10 7-5 11-6 11-3 20-1 16 3h10l4-3-1-7h-7l2-4z" fill="#979999"/>
<path transform="translate(308,968)" d="m0 0 2 1-1 1h13l6 3 2 3-1 9-9 8-8 4-14 3-22 2h-9l-20-3-14-4-12-6-9-8-5-8 2-1 8 4 8 9 13 5 8 2 23 2h13l17-2 13-3 3-2 1-6-1-2-4-1h-11l-19 3h-6v-2l18-5 14-5z" fill="#979999"/>
<path transform="translate(230,658)" d="m0 0 10 2 6 21 10 25 4 12v6l-16 4-3 2-5-1-3-4 2-16v-11l-4-20z" fill="#F3F3F3"/>
<path transform="translate(1837,950)" d="m0 0 7 1 2 2 1 8 13 8 2 1-2 4-7 10-12 25-5 2-14 1h-15l-14-3-6-3-3-2v-2h26l18-5 8-3h3v-2l8-5 3-4 1-10-12-3h-13l2-4 5-3-1-8z" fill="#BCBDBD"/>
<path transform="translate(786,859)" d="m0 0h23l2 5-1 3-8-1-9-1-12 3-6 3-10 10-6 13-2 6-1 7-1 58-1 11-4 9-2 4h-2v2l-4 2h-7l-8-5-3-3v-5l-7-1v-1l15-1 3 7h6l4-4 3-9 1-28v-22l1-15 4-16 4-8 8-10 5-5 5-4z" fill="#979999"/>
<path transform="translate(336,626)" d="m0 0h2l3 27 1 15 4 13 1 2v6l-5 10-4 1-7-4-8-2v-15l2-14 2-6 1-20 3-11h5z" fill="#F3F3F3"/>
<path transform="translate(1079,971)" d="m0 0h4v7h6l-1 11-8 16-10 15-10 13-4 5h-2v-11l3-19 5-16 5-10 8-9z" fill="#F6F6F6"/>
<path transform="translate(362,964)" d="m0 0 5 2 10 6 3 1 5 6v2l5 2 7 4 7 3 18 4h29l18-4 10-5 2-3 1-7-5-2-8-1-14 4-4-1 1-2 9-4 5-1 7-3h9l7 3 3 6-1 8-6 7-10 6-17 5-12 2h-17l-16-3-15-5-12-6-7-5-5-5-8-6-2-2z" fill="#979999"/>
<path transform="translate(1407,927)" d="m0 0 3 1 4 10-3 3-3 5h-2l-2 4-8 12-7 9h-2l-2 5-3 1v2l-13 9-16 8-21 5-13 1h-11l-18-4-14-5-16-8 2-6h3l4 4 14 6 15 4 20 2 18-1 19-5 11-6 11-8 3-3h2l2-4 6-9 5-7 6-11 2-4h2z" fill="#989A9A"/>
<path transform="translate(842,846)" d="m0 0 7 5 8 10 5 10 5 14 2 20v34l-1 9-1 22-2 10-6 9-5 3h-9l-5-3-4-5 1-5h-9v-1h12l3 1 3 5h6l4-1v-2l2-1 2-7 1-10 1-32v-27l-3-21-3-12-6-9-4-4h-5l-3-11z" fill="#979999"/>
<path transform="translate(656,840)" d="m0 0 2 3 2-2 9 1 6 5 4 10 2 31v49l-1 32-2 12-5 8-6 3h-8l-5-2-5-5-1-4 1-1-6-1v-1h14v-6h1v7l-1 3 4 2 7-1 5-9 1-10 1-28v-45l-1-23-3-12-7-6-3-1-2 2-2 4-1-5z" fill="#989A9A"/>
<path transform="translate(1874,899)" d="m0 0 9 3 20 6 26 7 10 5 5 5 2 3v11l-10-3-28-9-17-9-10-8-7-10z" fill="#818282"/>
<path transform="translate(1356,825)" d="m0 0 5 1 14 7 13 10 6 5v2l3 1v2l3 1v2l4 2 3 3 1 10-2 16h-2l-6-11-6-7-7-8v-2l-10-2-7-11-9-10-8-7z" fill="#BEBFBF"/>
<path transform="translate(1668,1035)" d="m0 0 4 1v8l-5 25 9-5 5-2-4 4-11 7-8 23-8 17-8 9h-6l-1-2v-7l4-11 7-12 12-13 4-5 4-14 4-21-8 6-7 8-12 12-6 4h-5l-1-1v-6l4-7-17 8-3 1h-9l-2-4 3 2h7l21-10 10-7 3-2h7l-4 2-8 6-7 8-3 7 7-4 20-20z" fill="#155837"/>
<path transform="translate(541,837)" d="m0 0h1l1 6 2-2 8 1 6 4 4 10 5 24 57 1v1h-59l-25-1z" fill="#818282"/>
<path transform="translate(599,923)" d="m0 0h11l6 1h9l1 4v49h-1v-45l-4 1-5-1h-24l-11 3-8 6-4 7-3 8-3 22-4 9-4 4-9 2-10-5-3-4 1-4 1-1h6l3 5h6l5-4 3-9 3-21 6-12h2l1-3h2v-2l9-6 9-3z" fill="#969898"/>
<path transform="translate(1530,969)" d="m0 0 2 1-11 19-6 14-5 2-25 3h-6l14-22 3-6 16-3 13-5z" fill="#818282"/>
<path transform="translate(313,630)" d="m0 0h2l3 9 1 7v11l-6 7h-2v2l-5 1-15-3-6-4-5-6-2-13 3 1 1 4 5 2 6-1 9-10z" fill="#F4F5F5"/>
<path transform="translate(1199,970)" d="m0 0h1v8l8 1 2 4-1 6-7 6-4 2-20 2h-48l-10-2-6-4-5-4-3-5v-5h5l5 8 7 4 4 1h22l15-1 21-1 8-2 2-5v-2l-14-1v-1h18z" fill="#989A9A"/>
<path transform="translate(1315,858)" d="m0 0 16 1 6 2 7 1 5 9-1 2-14-6-5-2-13-1-15 3-12 6-12 11-4 6-5 13-2 9v13l2 9 4 10-1 3-6-2-3-2v-6l-3-9v-17l2-9 8-16 8-11 12-9 12-6z" fill="#979999"/>
<path transform="translate(974,859)" d="m0 0h21l15 3 5 9-1 2-8-4-12-4h-19l-13 4-10 7-10 9-5 9-4 12-1 5v14l2 8 4 10-1 4-6-2-2-3-3-14v-18l2-10 7-15 5-7 8-7 11-7 9-4z" fill="#979999"/>
<path transform="translate(330,871)" d="m0 0h1v9l-1 7v18l3 16 4 10v5l-8 8-9 4-2 8-1-2h-2l-5-11v-4h6l5-3 7-7-2-16-3-10-5-5-6-5v-2l-3-1-1-3 4-4 12-5 4-4h2z" fill="#F7F7F7"/>
<path transform="translate(1113,815)" d="m0 0h1v28l4-2 8 1 8 7 3 7 1 6 1 21v49l2 12 1 5 2 2h-6l-2-2-3-12v-50l-2-25-3-7-5-5h-5l-2 5h-3z" fill="#979999"/>
<path transform="translate(1557,894)" d="m0 0h1v32l3-2 8 1 5 5 5 10 2 12v22l-2 10-5 6-8 6-15 3-10 1-2 1 2 1v2l-12-1 2-6 2-4h2v2l22-3 9-3 5-5 3-7 1-14-1-15-3-10-3-3-7-1h-4z" fill="#979999"/>
<path transform="translate(307,839)" d="m0 0h7l6 5 3 6-2 8-1 2-9 3h-39l-11 4-6 8-3 6h6v1h-8l-5-1 3-10 5-7 8-5 12-3 13-1h18l5-2-1-4-3-1 1-6z" fill="#979999"/>
<path transform="translate(219,205)" d="m0 0h10l7 4 1 1v12l-3 6-7 4-4 1h-13l-4-1v2h-2l-2 4-1-4 2-7 7-14 5-6z" fill="#0C5430"/>
<path transform="translate(1826,975)" d="m0 0 9 3 2 2-1 5-6 5-21 5-11 1-8-1-4-1 5-15 10-2 3 1z" fill="#818282"/>
<path transform="translate(1823,837)" d="m0 0 1 3h6l2 1v2l4 2 2 6v5l-5 5-13 2h-8l-9-1-15 1-9 3-6 5-5 10 3 1h-7l-3-1 3-10 6-7 8-5 10-3 5-1h23l8-2v-3l-3-2 1-8z" fill="#979999"/>
<path transform="translate(1965,838)" d="m0 0 1 2h5l7 6 2 5-1 6-5 5-3 1h-40l-6 3-7 6-3 10-7-1 2-9 3-6 8-6 9-4 34-1 1-5-3-1 1-6z" fill="#979999"/>
<path transform="translate(1675,835)" d="m0 0 2 4 5 1 4 3 2 4v8l-4 7-5 5-7 10-2 5-2 22v28l2 19 4 1-10-1-2-12-1-17v-18l1-16 5-15 7-10 5-7v-9l-4-4-5-1 4-2z" fill="#979999"/>
<path transform="translate(1153,1030)" d="m0 0 1 4-2 7 5 2 7 2 10 1 2-5 5-5 5-1-2 3h-2l-2 4-3 7 6-4 4-6 1 2-4 6-4 3-4 2-1 7 4 4h9l12-6 13-10v3l-14 11-11 5-7 1-7-4-2-4v-8l1-3h-7l-9-2-3-2h-4l-3 6-5 8-8 11-5 1-1-4v-17l-11 9-12 7-10 2-6-3-4-7-7 6-10 4-6-1-5-6-2-5 2-2 5 10 1 1h7l12-7 3-3 3-10 4-6 4-3 5 1-1 2-4 1-5 8v2l6-4 3-6 2 1-3 6-9 6-1 7 3 3 3 1h7l10-5 16-12 2-10 2 1v14l-1 15 5-5 11-18 4-12z" fill="#215D3F"/>
<path transform="translate(1902,1043)" d="m0 0h2l-1 15-1 11 14-11 11-7 6-3 2 1-7 4-12 8-15 12-4 10-5 16-8 18-7 10-2 2h-4l-1-6 2-8 5-14 8-14 9-11 4-11z" fill="#0B532F"/>
<path transform="translate(290,897)" d="m0 0h1v10l3-1 6 4 3 6-2 6-2 4-10 4-7 1-15 2-13 4-4 2-2 4-3 9 1 2-11-1v-2l3-3 2-7 6-7 14-6 25-7 4-5-4-4-6-3v-1l10-1z" fill="#979999"/>
<path transform="translate(1722,972)" d="m0 0 9 3 12 3 25 2h8l-1 4-9 16-15-3-17-9-9-9z" fill="#818282"/>
<path transform="translate(1805,907)" d="m0 0 7 1 4 5 1 5-4 7h-2v2l-10 3-20 3-11 4-8 6-2 9 2 2h-7l-5-2 4-2-1-4 5-8 6-5 11-5 15-4 9-3 4-3v-4l-2-1v-2l-5-1v-2z" fill="#979999"/>
<path transform="translate(259,625)" d="m0 0 10 3 5 2v18l-4 13-3 1v26l-1 2h-2l-2-13h-2l-3-6v-14l3-6v-12z" fill="#F1F1F1"/>
<path transform="translate(252,729)" d="m0 0h7v13l-1 4 2 2v10l-6-1-7-9-7 1-4 4-5 2h-8l1-6 7-17 4 1 10 5-1-6z" fill="#F1F1F1"/>
<path transform="translate(75,840)" d="m0 0h9v34h-1l-1-5-1 1h-8l-10-4-4-6v-9l5-6-2-2z" fill="#979999"/>
<path transform="translate(1677,967)" d="m0 0 5 3 4 5 2 3 1 8-5 7-7 4-10 2-23 1-15-2-8-4-5-4-2-4 1-7h9l1 7 4 4 3 2 13 2h11l14-2 6-1v-2h2l1-9-3-1v-11z" fill="#989A9A"/>
<path transform="translate(230,624)" d="m0 0h8l16 12 1 2v12l-3 8v25h-2l-6-20-3-19-3-6-5-2h-7v-10z" fill="#F0F0F0"/>
<path transform="translate(98,146)" d="m0 0h2l6 9 11 10 9 2 1 4 6 2 8 5-1 9 3 2-1 3h-3v7l-4-1-2-1v-2l-5-2-7-8-6-9-3-7-5-5-8-14z" fill="#F2F2F2"/>
<path transform="translate(367,598)" d="m0 0h2v5h-2v2l-7 3-2 4-3 24-1 20-3 17-2 2-2-3-2-24-1-6v-17l1-9 5-2v-2l6-4 7-6h2z" fill="#EFEFEF"/>
<path transform="translate(1256,973)" d="m0 0 5 1-1 7-6 15-9 16-12 16-7 9-1-4 11-25 8-16 7-12z" fill="#EFEFEF"/>
<path transform="translate(1291,1028)" d="m0 0h2l-2 13-3 15v5l8-13 8-9 3-2 4 1 3 5v6l10-4 10-2v2l-13 4-9 5-7 9-3 3-5-1 1-4 10-9 2-4v-7l-2-1-7 6-5 7-5 9-6 13-8 26-1 2h-2l1-8 6-26 5-25-2-2h3l2-11z" fill="#0A532E"/>
<path transform="translate(1783,979)" d="m0 0h6l-1 6-10 21-9 13-10 13-5 5 1-6 13-29 10-18z" fill="#EAEAEA"/>
<path transform="translate(1039,1036)" d="m0 0h6l4 4v2l3-1-2 6-12 11-11 7-4-2-1-2 1-9 6-10 6-5z" fill="#1C5B3C"/>
<path transform="translate(1360,1035)" d="m0 0 3 1 1 7-4 16-3 9 4-4 7-9 4-4h2l2 10 4-2 5-5 6-8 1-8h3v7l18 1 3-7h1l-1 9-6 14v2l17-8 23-8 4 1-9 3-21 8-14 7-3-1 1-8 3-8-11-1v-2h-7l-4 7-7 8-7 1-2-3v-6h-2l-2 5-11 13-4 2-1-4 5-18 2-7z" fill="#0D5430"/>
<path transform="translate(1598,1035)" d="m0 0 5 2 1 2v17h-1v-10l-8 7-10 9-5 4-5-1 1-9 7-11 8-7z" fill="#135635"/>
<path transform="translate(327,598)" d="m0 0h13l1 2v6l-10 3-6 4-1 6 3 4-1 10-2 7-2-2-4-13-5-11 1-5 6-5 4-5z" fill="#EDEDED"/>
<path transform="translate(1261,1035)" d="m0 0 5 1-8 8 8 1 1-7h1v6h5v1l-6 2-9 14-7 6-3 1-8 11-11 12-6 4h-6l1-2 7-3 10-9 10-13 2-10 3-10 6-9z" fill="#155736"/>
<path transform="translate(1874,899)" d="m0 0 9 3v2h2l6 8 10 5 34 12 10 3 1 1v6l-10-3-28-9-17-9-10-8-7-10z" fill="#979999"/>
<path transform="translate(263,118)" d="m0 0h2l-2 13-5 12-12 21-4 8-4-1-2-1 1-5 5-12 10-19 7-10z" fill="#EFEFEF"/>
<path transform="translate(1441,968)" d="m0 0 5 2 14 6 14 3 10 1-1 5-5 10-9-2-9-5-4-3v-2l-4-2-6-5-5-7z" fill="#818282"/>
<path transform="translate(322,698)" d="m0 0 8 1 8 6 4 10v7l-10 2-8 5-3-1 3-15v-7l-2-4z" fill="#EFF0F0"/>
<path transform="translate(186,495)" d="m0 0 5 5 5 4 1 8v21l-2 16-2-2-5-19-3-11v-16z" fill="#EBEBEB"/>
<path transform="translate(545,841)" d="m0 0 8 1 6 4 4 10 5 24 57 1v1h-59l-4-1-3-13-2-10-5-6-7-2-3 4v-10z" fill="#979898"/>
<path transform="translate(1868,1035)" d="m0 0h3v10l-3 19 8-6 10-9 11-8h5l1 2-1 5h-1v-5l-7 4h-2v2l-8 7-9 8h-2v2l-7 1-2-10-7 11-10 15-8 10-8 7-4-1 12-11 13-18 8-12 6-10z" fill="#185938"/>
<path transform="translate(336,726)" d="m0 0 5 1 3 4v14l1 1v5l-3 2h-7l-7-11-3-6-1-3h2l1-3z" fill="#F3F3F3"/>
<path transform="translate(242,752)" d="m0 0 5 1 3 6 10 3-1 4-5 10-4 3h-8l-1-1-3-22z" fill="#EFF0F0"/>
<path transform="translate(299,312)" d="m0 0h5l1 22-4 11-6 11-1 4v25l-3 1-2-6-1-14 2-12 9-18z" fill="#155837"/>
<path transform="translate(1490,992)" d="m0 0 7 3h20l-1 6-2 3-13 2-16 2h-6l7-11z" fill="#979999"/>
<path transform="translate(172,830)" d="m0 0h11l7 3 2 7-4 11-1 15h-1l-1-12-5-7-5-2h-6l1-7 2-7z" fill="#BBBCBC"/>
<path transform="translate(1079,969)" d="m0 0m-3 1h3v2l-6 4-8 11-5 14-4 18-2 19h2l2-4 9-11 12-18 8-16 1 3-6 14-7 11-11 14-8 9v15l-2-3-1-7-3-1 2-1v-18l2-15 6-20 6-11 5-6z" fill="#0D5431"/>
<path transform="translate(172,319)" d="m0 0 3 1 3 7-1 4-11 12-4 5-2 12-7 61-2-1 1-22 2-30 4-21 4-6 12-12z" fill="#D8D8D8"/>
<path transform="translate(341,387)" d="m0 0 4 4 10 19 1 5 1 2v26l-2 8-2 3-1 5h-1v-26l-4-26-6-12z" fill="#9A9E9D"/>
<path transform="translate(1661,1076)" d="m0 0 1 2-10 25-7 12-7 6-1-1v-7l5-13 7-10 7-9z" fill="#EFEFEF"/>
<path transform="translate(152,275)" d="m0 0 5 1v2h4v5l-7 3-6 3h-2v2l-4 3h-4l-3-8-1-3h-2l1-6h12z" fill="#09522E"/>
<path transform="translate(1282,840)" d="m0 0h10l-3 2-10 4-8 4-4 3h-2v2h-3l-2 4-6 5-8 13-4 10-2 4v-8l5-15 6-9 9-9 10-6z" fill="#969898"/>
<path transform="translate(948,840)" d="m0 0h10l-3 2-11 4-11 7-13 11-8 13-4 11-2 3v-7l4-13 5-9 9-10 10-7 10-4z" fill="#959797"/>
<path transform="translate(1479,840)" d="m0 0h11v1l-14 4-11 7-13 11-2 3h-2l-2 5-4 6-4 13h-1v-7l4-13 6-10 10-10 12-7z" fill="#969898"/>
<path transform="translate(1666,1036)" d="m0 0m-2 1 2 1-1 3-22 22-6 4h-5l-1-1v-6l4-7-17 8-3 1h-9l-2-4 3 2h7l21-10 10-7 3-2h7l-4 2-8 6-7 8-3 7 7-4 20-20z" fill="#135635"/>
<path transform="translate(1782 1e3)" d="m0 0 2 4 11 5 9 2h35l-1 2-17 1-7 1-21 1-15-1-3-1 1-5z" fill="#B8BABA"/>
<path transform="translate(218,212)" d="m0 0h10l2 1v7l-5 5h4l3-9h1v6l-4 5-5 2h-14l-1-5 2-4 2 2 2-7z" fill="#D9E0DC"/>
<path transform="translate(403,840)" d="m0 0h11l-4 2-17 6-12 10-5 4-7 10-5 10-2 9h-1v-9l5-14 6-9 10-10 14-7z" fill="#969898"/>
<path transform="translate(1901,838)" d="m0 0h17l-1 2-17 5-10 7-3 5h-2l-2 9h-2l-1-2v-10l4-7 6-5z" fill="#969898"/>
<path transform="translate(1376,857)" d="m0 0h6l5 5 7 8 7 9 4 8-1 10-3-3-4-10-7-8-4-6v-2l-5-1-2-1z" fill="#979999"/>
<path transform="translate(744,857)" d="m0 0 6 1 3 4-1 6-6 8h-2l-1 3-4 1-3-5-1-5 2-7z" fill="#05512B"/>
<path transform="translate(1722,972)" d="m0 0 9 3 6 8 8 5 15 5 7 1-1 6-15-3-17-9-9-9z" fill="#979999"/>
<path transform="translate(1096,1035)" d="m0 0 5 1-1 2-4 1-5 8v2l6-4 3-6 2 1-3 6-9 6-1 7 3 3 3 1h7l14-7 1 2-12 7-10 2-6-3-4-7-7 6-10 4-6-1-5-6-2-5 2-2 5 10 1 1h7l12-7 3-3 3-10 4-6z" fill="#215D3F"/>
<path transform="translate(83,842)" d="m0 0h1v23l-2-2-9-1-4-3v-7l3-5 5-3h6z" fill="#818282"/>
<path transform="translate(222,759)" d="m0 0h12v11l2 10-7 3h-4l-1-2-1-17z" fill="#F1F2F2"/>
<path transform="translate(1040,1039)" d="m0 0h5l4 4-2 4-8 7-11 7h-3l1-5 7-12z" fill="#F4F4F4"/>
<path transform="translate(1783,979)" d="m0 0h6l-1 6-9 19-7-2-2-4 10-17z" fill="#818282"/>
<path transform="translate(1307,1037)" d="m0 0 4 1 3 5v6l10-4 10-2v2l-13 4-9 5-7 9-3 3-5-1 1-4 10-9 2-4v-7l-2-1-7 6-5 7-2 4-2-1 2-5 7-9z" fill="#225F41"/>
<path transform="translate(349,694)" d="m0 0h2l8 21v3h-11l-2-1-3-10 1-4z" fill="#EAEAEA"/>
<path transform="translate(347,721)" d="m0 0 13 2v21l-1 1h-5l-4-10-3-9z" fill="#F0F1F1"/>
<path transform="translate(1892,1081)" d="m0 0 2 1-6 17-7 15-6 11-3 1 1-9 6-15 7-12 4-6z" fill="#E6E6E6"/>
<path transform="translate(1785,1038)" d="m0 0h2v6l-5 11-3 9 16-8 9-3 4 1-21 9-9 5-13 16-8 8-6 3h-5l1-2 8-3 10-10 9-12h2l1-8 6-16z" fill="#2E6349"/>
<path transform="translate(1504,1006)" d="m0 0h9l-1 5-2 3h-3l-4 2h-7l-19-5 2-2z" fill="#B9BABA"/>
<path transform="translate(239,839)" d="m0 0h14l-1 2-15 5-4 1v2l-6 3-3 3-3 7-4 1 1-9 4-6 6-5z" fill="#969898"/>
<path transform="translate(1531,977)" d="m0 0 6 1-1 6-7 16-3 3h-7l3-9 8-16z" fill="#818282"/>
<path transform="translate(1441,968)" d="m0 0 5 2 6 3v2l5 2 4 5 10 6 8 1-1 6-9-2-9-5-4-3v-2l-4-2-6-5-5-7z" fill="#979999"/>
<path transform="translate(1755,839)" d="m0 0h14v1l-12 3-12 7-3 1-2 4h-2l-1 5-2 6h-2v-10l3-6 8-7z" fill="#979898"/>
<path transform="translate(174,300)" d="m0 0 2 1-8 8-11 6-3 1h-12v-5l-3-1v-2l26-1z" fill="#ADAEAE"/>
<path transform="translate(1662,1078)" d="m0 0 1 4-7 19-8 15-6 6h-6l-1-2v-7l4-11 5-5-2 5-4 11v7l6-5 8-14 9-22z" fill="#105532"/>
<path transform="translate(1256,973)" d="m0 0 5 1-1 7-6 15-6-2-2-2-1-2 6-10z" fill="#BABBBB"/>
<path transform="translate(1701,1038)" d="m0 0h2l-1 7-8 20 17-9 28-9h6l-1 4v-3l-30 10-16 8-5 1-1-5 2-6-6 3-2-1 9-5z" fill="#155736"/>
<path transform="translate(1655,1041)" d="m0 0 3 2h-2l-2 4-15 15-3 2h-3l1-5 7-9 8-7z" fill="#ECECEC"/>
<path transform="translate(272,419)" d="m0 0h2l2 15v38l-3 1-2-53z" fill="#9D9E9E"/>
<path transform="translate(1598,1039)" d="m0 0h3v5l-9 9-8 7-4 3h-2l1-5 9-11 7-7z" fill="#F0F0F0"/>
<path transform="translate(1486,997)" d="m0 0h2l3 3 5 1h18v3l-13 2-16 2h-6z" fill="#B6B7B7"/>
<path transform="translate(1494,1053)" d="m0 0h2l-2 5-6 10-7 10-8 11-7 8-6 4-4-1 5-4 8-7 13-18z" fill="#1F5B3D"/>
<path transform="translate(1522,1039)" d="m0 0 4 1-1 9-2 16 8-2 10-6 9-7 2 1-8 7-5 2v2l-11 5h-5l-2-2v-12l2-6 1-6-8 6-8 10-2 2v-4l9-10z" fill="#33654C"/>
<path transform="translate(133,277)" d="m0 0h7l3 2 11-1v2l-6 4-7 6-4-1-3-4v-2h-2z" fill="#F0F0F0"/>
<path transform="translate(1416,1039)" d="m0 0h1l-1 9-6 14v2l17-8 23-8 4 1-9 3-21 8-14 7-3-1 1-8 4-10z" fill="#185838"/>
<path transform="translate(350,407)" d="m0 0 4 1 2 7 1 2v26l-2 8h-1l-1-27-3-14z" fill="#DCDDDD"/>
<path transform="translate(1904 1e3)" d="m0 0 5 1v1l-35 3-1 1-9 1h-15l3-2 9-2 21-2z" fill="#587466"/>
<path transform="translate(1256,1046)" d="m0 0h9l-2 4-8 11-3 3h-2l1-9z" fill="#EDEEEE"/>
<path transform="translate(1769 1e3)" d="m0 0 9 3-1 4-5 8h-9l3-9z" fill="#BABBBB"/>
<path transform="translate(173,420)" d="m0 0h1l2 7 2 10 13 24 7 11v2h2l6 12h-2l-7-10-7-12-3-5-8-14-5-10z" fill="#2C6247"/>
<path transform="translate(1520 1e3)" d="m0 0h5l-1 4-14 23-1-3 8-22z" fill="#DFE0E0"/>
<path transform="translate(172,319)" d="m0 0 3 1 3 7-1 4-11 12-4 5-2 3h-2l1-6 7-8 8-8z" fill="#DBDCDC"/>
<path transform="translate(1370,943)" d="m0 0h2l-2 6-7 9-13 10-12 6h-3v-2l12-6 9-7 8-7z" fill="#909292"/>
<path transform="translate(303,940)" d="m0 0v3l-15 7-12 3h-11l4-2 9-3 15-4z" fill="#E9E9E9"/>
<path transform="translate(232,216)" d="m0 0h1v6l-4 5-5 2h-14l-1-5 2-4 2 2 1-5h1v6l3 1v1h11z" fill="#D5D5D5"/>
<path transform="translate(1416 1e3)" d="m0 0 9 3 7 2h19l20-1-4 2-9 1-1 1h-22l-12-2-7-4z" fill="#5E7E6E"/>
<path transform="translate(258,678)" d="m0 0h2l2 6v7h2v21l-2-1-2-7-2-20z" fill="#DADBDB"/>
<path transform="translate(660,905)" d="m0 0 2 1 1 6v10l-2 8h-2l-1-3v-21z" fill="#05512B"/>
<path transform="translate(155,379)" d="m0 0h1v15l-3 27-2-1 1-22 1-15z" fill="#DADBDB"/>
<path transform="translate(1852,1072)" d="m0 0 1 2-9 13-9 10-4 3-4-1 12-11 9-13z" fill="#155736"/>
<path transform="translate(1819,940)" d="m0 0 1 2-14 7-10 3h-12l2-2 16-4 9-2z" fill="#EAEAEA"/>
<path transform="translate(321,516)" d="m0 0h2l1 19-3 10-5 6-2 3-1-5 3-1 2-3 2-9v-19z" fill="#A0A1A1"/>
<path transform="translate(1246,1066)" d="m0 0h5l-5 5-7 9-10 11-6 4h-6l1-2 7-3 10-9 10-13z" fill="#33654C"/>
<path transform="translate(235,437)" d="m0 0 5 5 8 13 12 27v2h-2l-5-10-5-13-10-18-3-4z" fill="#255F42"/>
<path transform="translate(230,640)" d="m0 0 5 1 2 3-1 11-4-2-3-5v-7z" fill="#E5E5E5"/>
<path transform="translate(1739,1047)" d="m0 0h6l-1 4v-3l-30 10-17 8v-3l14-7z" fill="#33654C"/>
<path transform="translate(1732,915)" d="m0 0h3l-2 5-3 10v10l-3-2-1-3v-10l4-8z" fill="#9A9C9C"/>
<path transform="translate(222,208)" d="m0 0 8 1 3 3 1 7-2-1-3 7-2 1h-9l-2-2h9l4-4 1-7-9-1z" fill="#697C73"/>
<path transform="translate(1087,989)" d="m0 0 1 3-6 14-7 11-6 8-2-2 12-18z" fill="#235E41"/>
<path transform="translate(1855 1e3)" d="m0 0 15 2-2 2-16 3 4 2-10 1 2-1 1-4z" fill="#E9E9E9"/>
<path transform="translate(337,611)" d="m0 0h1v8l-3 4-4-1-3-4 2-4z" fill="#E6E6E6"/>
<path transform="translate(1529,999)" d="m0 0 1 2-1 2h10v1l-11 1-7 12-4 7-4 4v-3l11-18 2-5z" fill="#155836"/>
<path transform="translate(1962,964)" d="m0 0 2 1-7 7-12 6-7 2h-5l4-3 15-6 9-6z" fill="#939595"/>
<path transform="translate(1034,947)" d="m0 0 2 1-6 8-8 8-8 5h-3v-2l12-8 8-8z" fill="#929494"/>
<path transform="translate(242,520)" d="m0 0 1 4 1-4h2l-1 27h-1l-1-6-2-1v-17z" fill="#9BA3A0"/>
<path transform="translate(1392,1038)" d="m0 0h3v7l18 2-2 3-11-1v-2h-9z" fill="#0E5431"/>
<path transform="translate(1116,1055)" d="m0 0m-1 1 2 2-12 7-10 2-5-2v-3l5 1h7l10-5z" fill="#245F41"/>
<path transform="translate(1186,1035)" d="m0 0 2 1-1 4-4 6-4 3h-2l1-5 4-6z" fill="#E8E9E9"/>
<path transform="translate(1785,1038)" d="m0 0h2v6l-5 11-3 8h-2l2-9z" fill="#155837"/>
<path transform="translate(1097,1037)" d="m0 0h5v2h-2l-1 4-5 5-4 2 1-5z" fill="#E6E6E6"/>
<path transform="translate(1130,1036)" d="m0 0 2 1v14l-3 1-1-3-10 8-2-1 8-7 5-5z" fill="#145735"/>
<path transform="translate(1391,1047)" d="m0 0 1 3-9 11-3 2h-5l-2-3v-5h2l1 6 4-2 5-5 4-6z" fill="#285F44"/>
<path transform="translate(341,387)" d="m0 0 4 4 6 12v3h-2l-4-7-4-4z" fill="#85988F"/>
<path transform="translate(193,338)" d="m0 0 3 1v25h-1l-2-21-3-1 1-3z" fill="#B7B8B8"/>
<path transform="translate(1933,1048)" d="m0 0 2 1-7 4-12 8-10 8h-3l5-5 17-12z" fill="#2B6046"/>
<path transform="translate(1370,943)" d="m0 0h2l-2 6-7 9-7 6-2-1 10-11z" fill="#939595"/>
<path transform="translate(1773,995)" d="m0 0 8 3-2 6-7-2-2-4z" fill="#969898"/>
<path transform="translate(1242,964)" d="m0 0 5 2 8 5-4 6-5-5z" fill="#949696"/>
<path transform="translate(1774,1011)" d="m0 0 1 4-3 1-2 5-4 5-9 11-2 1 2-5 9-11z" fill="#33654D"/>
<path transform="translate(597,908)" d="m0 0h28l-1 3-27-1z" fill="#979999"/>
<path transform="translate(1648,1041)" d="m0 0h7l-4 2-8 6-5 5h-2l2-6z" fill="#0B532F"/>
<path transform="translate(216,916)" d="m0 0 2 1-4 9-1 10h-2l-1-9 4-9z" fill="#929393"/>
<path transform="translate(173,420)" d="m0 0h1l2 7 2 10 7 14-2 1-9-17z" fill="#567867"/>
<path transform="translate(173,332)" d="m0 0v3l-9 11-4 5h-2l1-6 8-7z" fill="#E7E8E8"/>
<path transform="translate(174,300)" d="m0 0 2 1-8 8-11 6-3-1 7-4-2-2 7-2z" fill="#1E5B3D"/>
<path transform="translate(1530,969)" d="m0 0 2 1-4 7-3 1h-7v-3z" fill="#959696"/>
<path transform="translate(1643,1097)" d="m0 0v3l-5 13v7l1 2h-3l-1-2v-7l4-11z" fill="#09522E"/>
<path transform="translate(1266,1036)" d="m0 0h2l-2 9h-9l6-7z" fill="#DFDFDF"/>
<path transform="translate(1521,996)" d="m0 0 8 1-1 4-2 2h-7z" fill="#949595"/>
<path transform="translate(139,309)" d="m0 0h5v5h3l-1-5h10l-3 3h-4v2l3 2h-10v-5z" fill="#195A3A"/>
<path transform="translate(138,309)" d="m0 0 5 2-1 5h7v1l-11 2-2-6 3-2-2-1z" fill="#9B9C9C"/>
<path transform="translate(1520 1e3)" d="m0 0h5l-1 4-3 4h-4l-2 2 1-5 2-4z" fill="#B2B3B3"/>
<path transform="translate(1887,1086)" d="m0 0 1 3-7 11-2 4-3 1 2-6 7-12z" fill="#1C5A3B"/>
<path transform="translate(1765,1081)" d="m0 0v3l-8 8-6 3h-5l1-2 8-3 8-8z" fill="#33644C"/>
<path transform="translate(1861 1e3)" d="m0 0h5v1l7 1v1l-9 1h-15l3-2z" fill="#7F9289"/>
<path transform="translate(215,284)" d="m0 0 7 1 4 2v2l-5-1v-2l-7 2-9 7h-2l1-3z" fill="#4D715F"/>
<path transform="translate(368,870)" d="m0 0 1 2-5 10-2 9h-1v-9l4-11z" fill="#949696"/>
<path transform="translate(285,510)" d="m0 0h2l3 8 7 12-1 3-5-9-7-10z" fill="#46715C"/>
<path transform="translate(152,275)" d="m0 0 5 1v2h4v5l-1-4-6 1v-2l-7 2-5-1 3-2z" fill="#82928B"/>
<path transform="translate(1890,842)" d="m0 0 3 1-8 8-3 7h-1v-7l7-8z" fill="#B4B5B5"/>
<path transform="translate(1860,1058)" d="m0 0 3 1-9 14h-3l2-5z" fill="#275F43"/>
<path transform="translate(1153,1030)" d="m0 0 1 4-5 12-3 1 3-9 2-7z" fill="#07522C"/>
<path transform="translate(1256,973)" d="m0 0 5 1-1 7-5-1-2-2z" fill="#929494"/>
<path transform="translate(1744,843)" d="m0 0 4 1-8 6-4 6-1 5h-1v-8l7-8z" fill="#B4B5B5"/>
<path transform="translate(367,598)" d="m0 0h2v5h-2v2l-7 3-2 2-1-3 6-5h2z" fill="#C0C0C0"/>
<path transform="translate(1313,1043)" d="m0 0h1v6l10-4 10-2v2l-13 4-5 2-3-1z" fill="#5B7B6B"/>
<path transform="translate(380,851)" d="m0 0h2v2l-8 7-7 12-1-4 6-9z" fill="#B0B1B1"/>
<path transform="translate(928,849)" d="m0 0h2l-2 4-11 10-1-2 7-8z" fill="#AFB0B0"/>
<path transform="translate(1262,849)" d="m0 0 2 1-13 13-2-1 7-8z" fill="#B1B2B2"/>
<path transform="translate(248,460)" d="m0 0h2l10 22v2h-2l-5-10z" fill="#1B5A3B"/>
<path transform="translate(272,419)" d="m0 0h2l1 5v8h-1l-1 11h-1l-1-23z" fill="#B6B7B7"/>
<path transform="translate(1372,1051)" d="m0 0h2l-1 4-2-1-2 5-5 5h-2l2-4 7-8z" fill="#145635"/>
<path transform="translate(152,398)" d="m0 0h1l1 6v9l-1 8-2-1z" fill="#B0B1B1"/>
<path transform="translate(1862,977)" d="m0 0 1 3-9 17-2 1 3-9z" fill="#969797"/>
<path transform="translate(194,300)" d="m0 0h1l1 10-3 14h-1l1-15z" fill="#A9AAAA"/>
<path transform="translate(1825,1046)" d="m0 0 2 1-1 5-1-3-13 4-4-1z" fill="#75887F"/>
<path transform="translate(1238,1020)" d="m0 0 3 1-9 11-4 5-2-1 10-13z" fill="#37674F"/>
<path transform="translate(1300,1043)" d="m0 0 3 1-7 9-2 4-2-1 2-5z" fill="#33654C"/>
<path transform="translate(1459,849)" d="m0 0 2 1-5 5-5 4-4 4 1-4 9-9z" fill="#B1B2B2"/>
<path transform="translate(344,398)" d="m0 0 3 3 2 5h2l1-2v3h-2v7h-2l-2-9-2-4z" fill="#547766"/>
<path transform="translate(1651,1084)" d="m0 0h2l-2 5-5 6-2 3h-2l2-5z" fill="#255E42"/>
<path transform="translate(1213,1047)" d="m0 0v3l-14 11-1-3 11-8z" fill="#215C3F"/>
<path transform="translate(230,842)" d="m0 0 4 1-8 5-5 6-1-4 8-7z" fill="#ABACAC"/>
<path transform="translate(350,407)" d="m0 0 4 1 2 8-5 1z" fill="#D9DADA"/>
<path transform="translate(271,109)" d="m0 0 2 1-4 17h-1v-8l2-9z" fill="#A7A8A8"/>
<path transform="translate(1804,1053)" d="m0 0 4 1-19 8-2-1 8-5z" fill="#215E40"/>
<path transform="translate(1494,1053)" d="m0 0h2l-2 5-4 7h-3l2-5z" fill="#2B6246"/>
<path transform="translate(321,537)" d="m0 0 1 4-3 7-3 3-2 3-1-5 3-1 2-3 1-5h2z" fill="#597B6A"/>
<path transform="translate(232,216)" d="m0 0h1v6l-4 5-5 1-4-2 9-1z" fill="#B3B4B4"/>
<path transform="translate(1146,1047)" d="m0 0h2l-5 10-4 1 2-5 3-5z" fill="#376850"/>
<path transform="translate(1267,1038)" d="m0 0h1v6h5v1l-6 2-2 3-2-1 2-3h-7v-1h8z" fill="#05512B"/>
<path transform="translate(157,310)" d="m0 0h2l-1 3-3 1-1 2-6-1 1-3z" fill="#C8C8C8"/>
<path transform="translate(1726,925)" d="m0 0h1l1 5h2v10l-3-2-1-3z" fill="#8F9191"/>
<path transform="translate(347,742)" d="m0 0h2l3 6v2h5v1l-8 1z" fill="#B4B5B5"/>
<path transform="translate(257,676)" d="m0 0 5 1 1 3v11h-1l-1-7-1-1v-5l-3 1z" fill="#71887D"/>
<path transform="translate(321,516)" d="m0 0h2l-1 14-2-3v-10z" fill="#7F8D86"/>
<path transform="translate(1401,1046)" d="m0 0 12 1-2 3-11-1z" fill="#909B96"/>
<path transform="translate(1416 1e3)" d="m0 0 9 3 7 2-3 2-6-1-7-4z" fill="#537665"/>
<path transform="translate(345,395)" d="m0 0h2l4 8v3h-2l-4-7z" fill="#E3E3E3"/>
<path transform="translate(266,135)" d="m0 0h1v21h-1l-1-14-1-3z" fill="#BFBFBF"/>
<path transform="translate(297,533)" d="m0 0h2v2l5 1 1 6-5-3-3-4z" fill="#6C8378"/>
<path transform="translate(193,338)" d="m0 0h2v10l-2-2v-3l-3-1 1-3z" fill="#D9D9D9"/>
<path transform="translate(1877,1104)" d="m0 0 1 2-5 12-2 1 3-11z" fill="#0E5431"/>
<path transform="translate(1488,1064)" d="m0 0 1 2-5 8h-3l2-5z" fill="#1B5A3B"/>
<path transform="translate(1359,957)" d="m0 0m-2 1 2 1-7 8-4 1 3-5z" fill="#919393"/>
</svg>
