<?xml version="1.0" encoding="UTF-8"?>
<svg version="1.1" viewBox="0 0 1600 1600" width="400" height="400" xmlns="http://www.w3.org/2000/svg">
<path transform="translate(0)" d="m0 0h1600v1600h-1600z" fill="#FCFCFC"/>
<path transform="translate(1434,997)" d="m0 0 9 1 5 3 4 6 1 3 1 13 9-3h6l6 7h2l2-4 7-7 16-8 15-3h20l16 3 16 6 5 3-1 5-6 15-6-1-16-6-14-2h-10l-12 3-6 4-4 6v8l3 5 5 4 15 5 24 6 15 6 9 6 6 8 4 11v15l-4 10-7 9-11 7-12 5-10 2h-31l-5 10-10 15-7 14-6 17-6 23-2 10v7l1 2 4-1 8-7 13-19 6-8 3-7 2-9 3 1-1 10-1 11 6-4 11-10 8-4 4 1 1 4-2 15v3l14-11 14-7-1 3-13 8-11 8-5 5-7 21-8 17-6 7-4-1 1-11 6-15 9-14 3-3 4-10 3-17-6 3-11 10-9 7h-3l-1-6-4 2-8 12-8 11-4 5-6 3h-5l-3-3-1-3v-13l5-23-13 3-25 11-11 13-9 9-5 1 4-5 8-7 7-8 10-25 6-14 1 3-3 10-3 7-4 10v2l19-8 12-4 8-1 4-16 5-13-8 1h-20l-11-2-6-3 3-1 8 2 9 1 26-1 9-17 4-10-19-8-7-5 1-6 7-15 6 2 8 5 11 4h7v-4h-2l-5-6v-2l-4-2-7-8-4-4v-2l-4-1-9-4-5-1h-7l-15-3-13-5-6-1-10 3-9 7-4 9-3 20v20l-2 17-4 11-1 2h-2l-2 6-8 5-5 2h-8l-10-4-3-2v-2h-2v-2h-2l-6-10-2-9-3-3-9-1-3-2-1-61-7 1-7 7-2 3-2 10-1 27-4 22-3 10-4 6-6 5-7 3-8-1-11-7-7-10-3-11-8-2-10-2-1-68-12 9-3 3-2 5-2 1-3 9-1 8v40l-1 3h2l2-6 6-10 4-4h4v3l-5 3-8 16-5 11-5 13v2l6-10 4-8 3-3 8-20 2-3-1 9-5 12-2 4h7v2l-9 1-9 16-6 9-9 19-6 4-14 21-9 10-8 3-5-5v-15l4-22-9 1-24 10-6 2v-8l1-4h-3v-2l-5-2-1-2 4 1h7l3-5 2-1-1 6-4 13 25-10 9-3 4-1 7-21 2-7-11 1h-13l-13-1-1 4-7 2-10-1-14-7-8-7-11-6-8-3-10 2-11 7-8 6-6 3-4 3-7 2-7-1-5-3-5-4-7-9-3-8h-3l-1-2-10 19-10 15-7 8h-2l-2 4-4 10-3 15v16 3l-3-2-1-4v-11l1-12 2-7-14 10-11 4-7-1-3-3-1-5v-6l-13-3-2-3 7 1 4 2h5l4-6 5-4h2v3l-6 5v3l6-5 2 1-5 6-5 3v7l1 1h8l9-4 13-10 3-3 10-24 10-20 3-4v-54l-1-11-2-4-4 2-5 5-4 11v6l-1 7v12l-2 20-1 9-3 8-6 10-14 7h-6l-12-4-9-5-7-1-8 2-2 4-10 6-10 4-11 3-9 1-8 2-11-3h-2l-5 5-4 5 1 13 3 6 5 1 11-7 3-1-2 4-5 4-10 3-6-5-3-12v-3l-5 5-10 9-5 3h-5v-2h-2l1-8 6-10 4-3h2v-2h8l4 2v-3l-2-1v-3l-8 2-8-4-7-2-14-8-4-3-9-1-10 4-11 5-11 3-8 1-21 1h-23l-20-3-12-4-9-5-11-8-7-3h-8l-9 4-5 1v2l-5 3h-2v2l-5 2-4 1v2l-9 2-6 2-19 2h-9l-12-1-12-3-18-8-6-2h-12l-13 4-2 1h-8l-10-4-3-2v-2h-2v-2h-2l-3-5v-2h-2l-3-9v-2h-2v-2l-16-1-1-1v-68l-11 6-5 5-3 5h-2l-2 10-2 21-1 15-3 13-3 10-6 8h-2v2l-8 4-9-1-8-3-10-8-6-6-3-1h-7l-5 2-9 6-1 2-6 1v2l-8 4-8 5-16 5-11 2h-20l-17-3-11-3-17-6-8-3h-11l-7 3-17 5h-11l-5-1v-2l-6-1-7-5-9-5-9-6-10-1-5 2-9 5-9 8-6 3h-12v-2l-4-1-3-1v-2l-4-2-5-7-4-12-6-2-11-1-1-1v-138l1-1h26l1 67 5-4 7-8 25-25 1-2h2l2-4 24-24h29l-3 5-11 12-16 17-3 5 11-6 8-6 9-4 9-3 9 1 5 5 10-9 9-7 16-8 17-4h21l14 3 12 5 17 9 3 2v2l4 2v2h8l20 8v2l4 1v2l6 2 1-1 1-37h26l1 1 1 12 5-3 8-6 10-4 10-2h18l12 3 10 5 10 9 4 5v2l2-1h8l12 4 6 4 5 5 1-3h2l1-7 6-9 7-7 12-6 17-4h22l16 3 15 6 4 2 1 3-1 6 10-1 7 3 7 5 1 3 3 2 1-30 2-1h25l1 9v20h5l2-4 8-1 11 4 7 6 6 15 2 9 1 18v7l3 17v12l-1 3 8-2 7-6 6-12 2-12 1-82 2-1h24l1 1 1 29h3l4-2v-2l5-1h7l7 2v2l5-1 2-27 3-1h25l1 2 1 23 8-3h9l9 4 5 4v2h2l3 5 6 20 1 11v12l2 19 5 13 1 2 3 1 15 1 1 2 1 11 1 2h9l9 3 7 4 6 1 1-2v-58l-1-8-5-2-6-9-4-10v-9l4-8 7-4h5l1-6-19 5-16 6-5 1-8-17 1-4 21-9 15-4 13-2h24l19 3 21 7 11 6v6l-1 2 3-1 2 1v-2h9l2 1 2 5v5h2l2-6 7-9 9-8 14-7 13-3h20l14 3 9 4 10 6 9 10 3 3 6-2 9 3 11 6 9 6 3 5h3l1-42h26v15l13-10 11-5 9-2h20l12 3 10 5 10 9 3 3 2 1v2l9-2 13 5 2 2-1-7-1-4 5-4 14-6 13-4 19-3h24l22 4 16 6 13 5 1 6 10 1 5 3 2 4 2 1-1-7-5-4-2-4v-12l4-6 3-3z" fill="#B3B4B3"/>
<path transform="translate(223,325)" d="m0 0 5 2 10-1 6 2 6-2 3 3h6l8 6h6l3 3v2l7 2 7 9 7 3 3 4 3 6 6 7 2 10 7 9 1 7 2 13 4 10 3 12 1 11 1 4 1 1v10l-2 4-2 24-6 25-7 21-9 21-8 14-8 9-11 8-10 5-8 2-8-1-6-4-7-8-5-10-1-3v-7l5-1 7 11 7 5h8l8-4 3-3h2l2-4 9-15 7-19 5-25 2-21v-35l-3-16-6-16-7-11-9-10-10-8-11-5-8-2-18-1-17 5-16 12-10 9-9 9 2 6 4 7 3 11v19l-5 17-8 14-2 5v13l5 9 5 8v9l3 11 8 14 7 9 9 17 6 8 5 10 6 24 4 12 8 16 7 10 12 11 9 10 7 11 1 8v8l7 14 2 7 1 24-2 17-6 19-1 17-4 20-3 14-1 19v27l-4 36-4 7-3 2h-3v15l-2 7-10 2-5 4-6 2h-5l-9-12-7-14 3-10v-8l-1-5v-11l1-15-6 1h-8l-10-2-8-5-1-2h-2l-1 2-2 22-1 6-1 36-4 3 1 8v9l-5 13-6 4-19 4h-7l-3-4-1-7v-8l-1-6 4-14 5-14 2-12v-9l-4-23-2-15-2-10v-16l-7-22-15-29-7-19-5-21v-24l-3-6-8-9 2-4v-13l-1-4v-16l1-13h-2l-9 14v4h-3v-5l-6 3-2 3-3-1-1-9 4-11h-5l2-4 6-11 1-5v-11l-7-1-1-1v-13l-2-7 3-5 2-4v-5l-5-2-3-3-4-18v-18l3-10 8-20v-7l-3-5-6-2-5-1v-2l6-1 1-11-3-6-12-12-6-11-7-10-5-11-1-6h7l4 2 7 9 8 6 10 4-7-17-6-32-1-6v-32l4-13 4-9 4-6 11-7 5-3 10 1 7 1 7 7 4 5v2l9 2 2 2v6l2 3 5-1 3 8 4 4v6l5 8-2 9-6 10-5 8v4l7-11 7-14 8-11 7-11 4-5 3-5 6-4 1-3 7-2 2-6 7-2 6-7 8-4 5-4 6-2 9-6 14-1z" fill="#05502B"/>
<path transform="translate(1434,997)" d="m0 0 9 1 5 3 4 6 1 3 1 13 9-3h6l6 7h2l2-4 7-7 16-8 15-3h20l16 3 16 6 5 3-1 5-6 15-6-1-16-6-14-2h-10l-12 3-6 4-4 6v8l3 5 5 4 15 5 24 6 15 6 9 6 6 8 4 11v15l-4 10-7 9-11 7-12 5-10 2h-31l-5 10-10 15-7 14-6 17-6 23-2 10v7l1 2 4-1 8-7 13-19 6-8 3-7 2-9 3 1-1 10-1 11 6-4 11-10 8-4 4 1 1 4-2 15v3l14-11 14-7-1 3-13 8-11 8-5 5-7 21-8 17-6 7-4-1 1-11 6-15 9-14 3-3 4-10 3-17-6 3-11 10-9 7h-3l-1-6-4 2-8 12-8 11-4 5-6 3h-5l-3-3-1-3v-13l5-23-13 3-25 11-11 13-9 9-5 1 4-5 8-7 7-8 10-25 6-14 1 3-3 10-3 7-4 10v2l19-8 12-4 8-1 4-16 5-13-8 1h-20l-11-2-6-3 3-1 8 2 9 1 26-1 9-17 4-10-19-8-7-5 1-6 7-15 6 2 8 5 11 4h7v-4h-2l-5-6v-2l-4-2-7-8-4-4v-2l-4-1-9-4-5-1h-7l-15-3-13-5-6-1-10 3-9 7-4 9-3 20v20l-2 17-4 11-1 2h-2l-2 6-8 5-5 2h-8l-10-4-3-2v-2h-2v-2h-2l-6-10-2-9-3-3-9-1-3-2-1-61-7 1-7 7-2 3-2 10-1 27-4 22-3 10-4 6-6 5-7 3-8-1-11-7-7-10-3-11-8-2-10-2-1-68-12 9-3 3-2 5-2 1-3 9-1 8v40l-1 3h2l2-6 6-10 4-4h4v3l-5 3-8 16-5 11-5 13v2l6-10 4-8 3-3 8-20 2-3-1 9-5 12-2 4h7v2l-9 1-9 16-6 9-9 19-6 4-14 21-9 10-8 3-5-5v-15l4-22-9 1-24 10-6 2v-8l1-4h-3v-2l-5-2-1-2 4 1h7l3-5 2-1-1 6-4 13 25-10 9-3 4-1 7-21 2-7-11 1h-13l-13-1-1 4-7 2-10-1-14-7-8-7-11-6-8-3-10 2-11 7-8 6-6 3-4 3-7 2-7-1-5-3-5-4-7-9-3-8h-3l-1-2-10 19-10 15-7 8h-2l-2 4-4 10-3 15v16 3l-3-2-1-4v-11l1-12 2-7-14 10-11 4-7-1-3-3-1-5v-6l-13-3-2-3 7 1 4 2h5l4-6 5-4h2v3l-6 5v3l6-5 2 1-5 6-5 3v7l1 1h8l9-4 13-10 3-3 10-24 10-20 3-4v-54l-1-11-2-4-4 2-5 5-4 11v6l-1 7v12l-2 20-1 9-3 8-6 10-14 7h-6l-12-4-9-5-7-1-8 2-2 4-10 6-10 4-11 3-9 1-8 2-11-3h-3l2-4 8-12 8-16 4-12 2-1 1-16h1l2 9h9l9 3 7 4 6 1 1-2v-58l-1-8-5-2-6-9-4-10v-9l4-8 7-4h5l1-6-19 5-16 6-5 1-8-17 1-4 21-9 15-4 13-2h24l19 3 21 7 11 6v6l-1 2 3-1 2 1v-2h9l2 1 2 5v5h2l2-6 7-9 9-8 14-7 13-3h20l14 3 9 4 10 6 9 10 3 3 6-2 9 3 11 6 9 6 3 5h3l1-42h26v15l13-10 11-5 9-2h20l12 3 10 5 10 9 3 3 2 1v2l9-2 13 5 2 2-1-7-1-4 5-4 14-6 13-4 19-3h24l22 4 16 6 13 5 1 6 10 1 5 3 2 4 2 1-1-7-5-4-2-4v-12l4-6 3-3z" fill="#B3B4B3"/>
<path transform="translate(213 1e3)" d="m0 0h21l14 3 12 5 17 9 3 2v2l4 2v2h8l20 8v2l4 1v2l6 2 1-1 1-37h1l1 138 25 1 1-88 3-10 4-6 8-8 8-4 8-2h8l12 3 9 7 5 7 3 11v89h-1v-67l-11 6-5 5-3 5h-2l-2 10-2 21-1 15-3 13-3 10-6 8h-2v2l-8 4-9-1-8-3-10-8-6-6-3-1h-7l-5 2-9 6-1 2-6 1v2l-8 4-8 5-16 5-11 2h-20l-17-3-11-3-17-6-8-3h-11l-7 3-17 5h-11l-5-1v-2l-6-1-7-5-9-5-9-6-10-1-5 2-9 5-9 8-6 3h-12v-2l-4-1-3-1v-2l-4-2-5-7-4-12-6-2-11-1-1-1v-138l1-1h26l1 67 5-4 7-8 25-25 1-2h2l2-4 24-24h29l-3 5-11 12-16 17-3 5 11-6 8-6 9-4 9-3 9 1 5 5 10-9 9-7 16-8z" fill="#B3B4B3"/>
<path transform="translate(1434,997)" d="m0 0 9 1 5 3 4 6 1 3 1 13 9-3h6l6 7h2l2-4 7-7 16-8 15-3h20l16 3 16 6 5 3-1 5-6 15-6-1-16-6-14-2h-10l-12 3-6 4-4 6v8l3 5 5 4 15 5 24 6 15 6 9 6 6 8 4 11v15l-4 10-7 9-11 7-12 5-10 2h-31l-5 10-10 15-7 14-6 17-6 23-2 10v7l1 2 4-1 8-7 13-19 6-8 3-7 2-9 3 1-1 10-1 11 6-4 11-10 8-4 4 1 1 4-2 15v3l14-11 14-7-1 3-13 8-11 8-5 5-7 21-8 17-6 7-4-1 1-11 6-15 9-14 3-3 4-10 3-17-6 3-11 10-9 7h-3l-1-6-4 2-8 12-8 11-4 5-6 3h-5l-3-3-1-3v-13l5-23-13 3-25 11-11 13-9 9-5 1 4-5 8-7 7-8 10-25 6-14 1 3-3 10-3 7-4 10v2l19-8 12-4 8-1 4-16 5-13-8 1h-20l-11-2-6-3 3-1 8 2 9 1 26-1 9-17 4-10-19-8-7-5 1-6 7-15 6 2 8 5 11 4h7v-4h-2l-5-6v-2l-4-2-7-8-4-4v-2l-4-1-9-4-5-1h-7l-15-3-13-5-6-1-10 3-9 7-4 9-3 20v20l-2 17-4 11-1 2h-2l-2 6-8 5-5 2h-8l-10-4-3-2v-2h-2v-2h-2l-6-10-2-9-3-3-9-1-3-2-1-61-7 1-7 7-2 3-2 10-1 27-4 22-3 10-4 6-6 5-7 3-8-1-11-7-7-10-3-11-8-2-8-1-1-1-1-87-3-12-5-9-9-6-6-2h-20l-12 6-6 7-5 12-1 5-1 85-1 1h-25v-138l1-1h24v15l13-10 11-5 9-2h20l12 3 10 5 10 9 3 3 2 1v2l9-2 13 5 2 2-1-7-1-4 5-4 14-6 13-4 19-3h24l22 4 16 6 13 5 1 6 10 1 5 3 2 4 2 1-1-7-5-4-2-4v-12l4-6 3-3z" fill="#B3B4B3"/>
<path transform="translate(1133,504)" d="m0 0h137l5 5 8 9 20 26 11 14 14 17 8 11 44 56 14 18 20 25 10 13 11 14 13 16 20 26 10 14 9 13 9 9v2l4 2v113h-27l-5-5-12-14-11-14-13-16-11-14-12-15-13-17-8-10-10-12-22-28-13-16-13-17-11-13-10-13-13-16-13-17-11-13-10-13-12-15-11-14-13-16-14-18-11-14-11-13-10-14-8-7-10-5-12-3-13-1-4 1-1-1v-19z" fill="#05502B"/>
<path transform="translate(402,504)" d="m0 0h174v15l-3 1-15 2-13 5-8 7-4 8-1 8 1 312 2 9 6 9 9 6 11 4 12 2 3 1v14h-170l-4-1-1-2v-11l17-4 11-6 6-7 4-10 1-23v-226l-1-68-4-10-9-10-11-6-13-3-1-1v-14z" fill="#05502B"/>
<path transform="translate(630,504)" d="m0 0h194v16l-22 3-21 5-20 8-15 8-14 11-13 13-7 8-13 14-7 8-12 13-9 10-12 13-7 8-15 16-9 11-5 5 1 5 10 13 12 17 10 13 10 14 14 19 15 20 8 11 28 38 13 18 12 16 7 8 8 7 16 9 14 5 19 4 17 2-1 14h-108l-15-5-19-9-11-7-9-7-9-9-12-17-9-12-14-19-13-17-9-12-16-21-27-36-8-11 1-6 14-17 9-11 11-14 13-16 12-15 9-11 26-32 9-11 12-16 6-14 2-10v-9l-3-9-6-7-8-4-8-2-26-1-1-1v-9z" fill="#05502B"/>
<path transform="translate(137,475)" d="m0 0h3l1 2 1 17 6 10 5 4 14 7 5 9 2 14 4 10 8 14 6 8 9 16 8 11 4 13 6 24 11 25 3 7 2 7 1-4h2l1 3v15l-2 20-3 15-5 12-2 2-11 1-6 7-5 4-7 10-2 4-1 10-1 2-3-1-1-1 3 5v2h2l2 3v6l-7 1-6-7-7-12-3-4-4 1-1 1h-5l-6-3-1 2v16l1 9-4 1-5-5-2-4-1-11v-11l-3-10-5-5-9-3-8-2-16-2-6-9-6-11-2-5v-12l4 2v2h2l5 9 8 12-6-11-6-10-3-9h-2l-3-6-2-8v-9l4-19 7-10 4-7 2-2-1-2 2-10h2v7l2-4 2-16v-32l5-5h6v-2l-4-2 1-4h8l-4-2-8 3-4 9-1 2h-3l-2-5-7 6-9 7-12 6-6 2h-10l-2-2 5-2 8-2 12-6 2-3-12 6h-12l-7-2-3-7v-8l4 1 1 5 10-8 8-3-1-4-8-2v2l4 1-5 4-3 3h-7l-3-4 1-5 4-1-3-2 2-5 3-3 3-1h8l6 3h4l1-4-5-2-4-2-13-1 5-11v-11l-4-10-3-4 6-13 4 1 2 9 3 2 7-1 11 7 4 1 3-4-1-6 9-15 2-2 22-1h5l1-7z" fill="#FAFAFA"/>
<path transform="translate(1144,1007)" d="m0 0 2 1-1 138 25-1 1-85 4-13 6-9 6-5 9-4h20l10 4 6 5 5 9 3 12v87h-1l-1-68-12 9-3 3-2 5-2 1-3 9-1 8v40l-1 3h2l2-6 6-10 4-4h4v3l-5 3-8 16-5 11-5 13v2l6-10 4-8 3-3 8-20 2-3-1 9-5 12-2 4h7v2l-9 1-9 16-6 9-9 19-6 4-14 21-9 10-8 3-5-5v-15l4-22-9 1-24 10-6 2v-8l1-4h-3v-2l-5-2-1-2 4 1h7l3-5 2-1-1 6-4 13 25-10 9-3 4-1 7-21 2-7-11 1h-13l-13-1-1 4-7 2-10-1-14-7-8-7-11-6-8-3-10 2-11 7-8 6-6 3-4 3-7 2-7-1-5-3-5-4-7-9-3-8h-3l-2-4 4-6 11 1v-35h70l1 1v33l27 1-1-84-2-15-6-14 1-2 6-2 9 3 11 6 9 6 3 5h3z" fill="#B3B4B3"/>
<path transform="translate(213 1e3)" d="m0 0h21l14 3 12 5 11 6 12 11 9 14 4 10 3 13v18l-4 17-8 15-9 11-12 9-14 7-12 3-7 1h-17l-16-3-11-4-12-7-11-10-7-10-6-12-4-16v-19l4-16 8-16 9-10 8-7 16-8 14-4z" fill="#05502B"/>
<path transform="translate(968,503)" d="m0 0h28l17 4 16 7 14 9 12 11 7 9 8 16 4 14 1 6v21l-4 20-6 16-8 16-8 14-12 16-11 13-12 13-8 8-3 1 1-6 7-19 5-17 3-17v-27l-4-15-8-16-7-8v-2l-4-2v-2l-4-2-10-8-12-6-13-3h-13l-16 3-17 7-13 8-12 9-12 11-3-1 6-20 8-18 9-16 9-11 9-10 13-10 12-7 19-7z" fill="#05502B"/>
<path transform="translate(1099,798)" d="m0 0 1 4-24 102-2 3h-207l2-5 13-19 32-46 4-6 2-1h136l13-4 11-7 9-8 8-12z" fill="#05502B"/>
<path transform="translate(1037 1e3)" d="m0 0h20l14 3 9 4 10 6 9 10 8 16 2 8 1 10v84h-25l-2-1-1-33-70-1v35h-11l-12 24-7 11-6 8-5 6h-2l-2 4-4 10-3 15v16 3l-3-2-1-4v-11l1-12 2-7-14 10-11 4-7-1-3-3-1-5v-6l-13-3-2-3 7 1 4 2h5l4-6 5-4h2v3l-6 5v3l6-5 2 1-5 6-5 3v7l1 1h8l9-4 13-10 3-3 10-24 10-20 4-6 1-85 2-18 4-11 7-11 7-7 11-7 10-4z" fill="#05502B"/>
<path transform="translate(1517 1e3)" d="m0 0h20l16 3 16 6 5 3-1 5-6 15-6-1-16-6-14-2h-10l-12 3-6 4-4 6v8l3 5 5 4 15 5 24 6 15 6 9 6 6 8 4 11v15l-4 10-7 9-11 7-12 5-10 2h-31l-5 10-10 15-7 14-6 17-6 23-2 10v7l1 2 4-1 8-7 13-19 6-8 3-7 2-9 3 1-1 10-1 11 6-4 11-10 8-4 4 1 1 4-2 15v3l14-11 14-7-1 3-13 8-11 8-5 5-7 21-8 17-6 7-4-1 1-11 6-15 9-14 3-3 4-10 3-17-6 3-11 10-9 7h-3l-1-6-4 2-8 12-8 11-4 5-6 3h-5l-3-3-1-3v-13l5-23-13 3-25 11-11 13-9 9-5 1 4-5 8-7 7-8 10-25 6-14 1 3-3 10-3 7-4 10v2l19-8 12-4 8-1 4-16 5-13-8 1h-20l-11-2-6-3 3-1 8 2 9 1 26-1 9-17 4-10-19-8-7-5 1-6 7-15 6 2 8 5 15 5 12 2h12l13-3 5-4h2l2-5v-9l-4-6-8-4-23-6-16-5-10-4-12-9-5-8-2-6v-19l4-10 7-8 8-6 11-5z" fill="#05502B"/>
<path transform="translate(1572,1022)" d="m0 0 1 3 11 1 7 3 9 6v140l-23 10-5 1-13 3h-18l-9-1-11-3v-2l-7-2-4-5v-2h-3v-2l-18 3 2-5 9-14 5-9h31l13-3 16-8 6-5 6-10 2-6v-15l-5-13-6-7-14-7-15-5-24-6-9-4-7-6-1-3v-8l4-6 5-4 8-3 6-1h10l14 2 16 6 6 2 3-9z" fill="#B1B3B2"/>
<path transform="translate(385 1e3)" d="m0 0h18l12 3 10 5 10 9 6 9 5 14 1 6v86l-1 9h-25l-1-1-1-89-3-11-6-8-7-5-12-3h-8l-13 4-10 9-4 6-3 10-1 81-1 7h-25l-1-1v-138h25l1 1 1 12 5-3 8-6 10-4z" fill="#05502B"/>
<path transform="translate(21,1007)" d="m0 0h26l1 67 5-4 7-8 25-25 1-2h2l2-4 24-24h29l-3 5-11 12-16 17-7 7-7 8-7 7-6 8 4 2 12 14 11 14 10 13 11 14 10 12 2 3v3h-27l-5-2-7-8-12-14-9-10-7-9-9-10-1-2-4 2-16 16-1 2-1 34-1 1h-24l-2-1v-137z" fill="#05502B"/>
<path transform="translate(1203 1e3)" d="m0 0h20l12 3 10 5 10 9 8 14 3 11 1 7v92h-27l-1-87-3-12-5-9-9-6-6-2h-20l-12 6-6 7-5 12-1 5-1 85-1 1h-25v-138l1-1h24v15l13-10 11-5z" fill="#05502B"/>
<path transform="translate(608,1007)" d="m0 0h22l1 16 1 69 4 16 6 8 7 5 6 2h19l12-5 7-8 4-9 2-12 1-81 3-1h21l1 1 1 18v119l-4 2-20-1-2-1v-13l-7 6-8 5-12 4-5 1h-19l-12-3-12-6-6-5-7-10-5-13-2-10v-93z" fill="#05502B"/>
<path transform="translate(518 1e3)" d="m0 0h22l16 3 15 6 4 2 1 3-7 18-3 1-10-5-15-4-8-1h-11l-9 2-8 5-4 5v10l3 4v2l5 2 15 5 23 6 14 5 9 6 8 9 3 8 1 4v10l-4 13-6 8-8 7-13 6-12 3h-24l-15-3-16-5-10-5-3-3 1-8 6-12 3-1 14 8 16 5 8 1h12l14-3 6-4 3-5v-9l-3-4v-2l-5-2-11-4-23-6-15-5-9-5-7-6-5-8-3-10v-10l4-13 6-8 9-8 12-5z" fill="#05502B"/>
<path transform="translate(1221,757)" d="m0 0 2 4 6 39 5 24 5 15 8 16 7 11 10 10 13 9 13 5 8 3-1 14h-162l-2-1-1-6v-7l5-2 15-4 17-8 11-8 11-11 7-11 6-12 4-13 10-56z" fill="#05502B"/>
<path transform="translate(1257,1025)" d="m0 0 3 1v2l9-2 13 5 2 2 2-2 5 10 19-8 17-4h4v116h-1l-1-60-7 1-7 7-2 3-2 10-1 27-4 22-3 10-4 6-6 5-7 3-8-1-11-7-7-10-3-11-8-2-8-1 1-2 25 1-1-92-3-15-6-12z" fill="#B3B4B3"/>
<path transform="translate(1419,504)" d="m0 0h160v15l-17 3-12 5-11 7-7 7-9 14-6 12-5 17-10 65-2 2-3-8-13-61-5-15-7-14-8-11-10-9-14-8-16-4-6-2v-8z" fill="#05502B"/>
<path transform="translate(220,1028)" d="m0 0 15 1 13 5 8 6 8 9 5 10 3 12v12l-4 14-6 10-9 9-14 7-12 2-14-1-11-4-11-7-8-10-5-11-2-9v-14l3-11 6-12 9-9 12-6z" fill="#B3B4B3"/>
<path transform="translate(898 1e3)" d="m0 0h24l19 3 21 7 11 6-1 5-7 17-6-2-16-7-14-4h-4l-1 115-4 1-23-1-1-115-9 1-24 8-3 2h-4l-8-17 1-4 21-9 15-4z" fill="#05502B"/>
<path transform="translate(1333 1e3)" d="m0 0h24l22 4 16 6 12 6-1 5-6 15-4 1-15-7-18-5-5-1v116l-1 1h-23l-3-1v-116l-21 5-16 7-3 1-5-8-4-10 2-4 14-7 16-5z" fill="#05502B"/>
<path transform="translate(771,1007)" d="m0 0h17l1 19 1 96 70 1 1 5-1 16-3 1-3 12-8 16-9 13-10 13 1 13 3 6 5 1 11-7 3-1-2 4-5 4-10 3-6-5-3-12v-3l-5 5-10 9-5 3h-5v-2h-2l1-8 6-10 6-4 8 1 2 3h-7l-5 3-7 12h3l11-8 9-9 9-11 9-13 7-12 5-15h-16l-2 5-5 14-6 24-2 1 1-15 5-18 5-11h-70l-2-1v-133l1-4z" fill="#05502B"/>
<path transform="translate(979,1082)" d="m0 0 3 1 2 4 1 11v54l-6 10-12 25-5 13-11 10-9 6-6 2h-8l-2-2v-7l9-7v-2l-6 5-2-1 3-5 3-3h2v-3l-8 6-3 5-8-1-6-2-5 1-9 16-5 5-3 1-2-2v-8l2-7-5 2-7 6-7 4-8 2-7-2-5-6 1-2-14 9-5-1-3-4-2-9v-7l8-10 4-2v2l8 1 4 1 11-3 10-1 10-4 9-4 8-5 3-3 9-2 8 3 10 5 7 2h6l10-5 4-1 2-5 4-7 2-7 2-14 1-23v-8l1-3 1-8 3-8 4-5z" fill="#F9F9F9"/>
<path transform="translate(1042,1028)" d="m0 0 17 1 12 6 7 8 4 11 1 5v29h-70l-1-1v-29l4-13 7-9 10-6z" fill="#B3B4B3"/>
<path transform="translate(246,675)" d="m0 0 7 6 8 10 3 5v13l2 6 5 8 3 10 1 21-2 14-5 15-15 31-12 15-4 3h-4l-1-2v-23l6-21 4-20v-15l-3-7-4-5 3-10 4-11 4-18z" fill="#F6F7F6"/>
<path transform="translate(168,777)" d="m0 0h3l9 12 4 4v2l16-1 1 1v26l-2 5v16l2 9-11 8-5 5-4-2-3-9-6-4-14-5-2-3-1-9v-24l2-6 10-8-1-13z" fill="#F7F7F7"/>
<path transform="translate(112,746)" d="m0 0 8 1 14 4 4 4 1 3v23h-3l-2-5h-5l3 7 10 13 6 4 1 2 1 26v12l1 3v7l-5-2-13-3-3-7-2-13-9-19-7-19-1-40z" fill="#F7F7F7"/>
<path transform="translate(221,742)" d="m0 0 6 1 6 5 3 7-1 13-8 40-2 13-4 3-12 3-3 1v-37l-3-9-2-8-1-6 4-10 5-6 5-3 5-6z" fill="#F6F6F6"/>
<path transform="translate(1207,1170)" d="m0 0h1l-1 8-7 19-7 14-10 14-6 8-9 10-6 5h-2v-15l4-19 6-20 8-19 2-2z" fill="#F8F8F8"/>
<path transform="translate(1434,997)" d="m0 0 9 1 5 3 4 6 1 3v8l-5 17-7 18-2 6-2 1h-13l-3-1 1-7 5-17v-7l-5-4-2-4v-12l4-6 3-3z" fill="#05502B"/>
<path transform="translate(245,1078)" d="m0 0h10l9 2 7-2v10l-5 13-6 8-7 7-9 5-10 2h-6v-5l1-3-3-6-1-1v-10l3-8h2v-2h3l2-5 6-3h4z" fill="#FAFAFA"/>
<path transform="translate(262,810)" d="m0 0h2l-1 11-5 21-1 20v28l-4 34-2 4-3-1-10-27-1-3 3-8 2-17 2-25 3-7 7-6 2-10z" fill="#F4F4F4"/>
<path transform="translate(1441,1138)" d="m0 0 2 1v7l-4 12-11 20-11 14-8 9-4 13-2 10v14l2 6-4-2-1-2-1-9v-10l3-15-20 6-13 5-9 5-1-6 1-3-20 11-4 5-5 16-7 14-8 9h-4l1-4 6-5 6-10 5-12 2-6-5 5-9 14-6 12-1-3 5-12 7-11 5-6 5-5 3-9 4-17 1-2-5 2-13 13-5 6-9 4 2-4 13-12 2-4 10-7 5-1 2 3-1 7-3 15v3l16-10h5l6-15 2 1-3 10-2 5v3l9-3 21-8 10-2 11-27 11-21 11-16h2l-2 6-12 21-11 24v2l7-8 10-15 8-17 2-6z" fill="#05502B"/>
<path transform="translate(79,396)" d="m0 0 5 1 7 7 11 15 7 11-1 8-8 19-2 3-5-1-4-5-2-10-7-28-1-6z" fill="#F5F5F5"/>
<path transform="translate(1191,1139)" d="m0 0 5 1v7l-7 14-6 9 13-1h12l-1 2-27 3-6 12-7 21-5 20-2 21-4-3v-15l4-22-9 1-24 10-6 2v-8l1-4h-3v-2l-5-2-1-2 4 1h7l3-5 2-1-1 6-4 13 25-10 9-3 4-1 7-21 2-7-11 1h-13l-13-2-7-3v-2l12 3 10 1 24-1 12-26z" fill="#05502B"/>
<path transform="translate(47,1007)" d="m0 0h1l1 31 3-1v-2l7-4 8-1 11 3 1 5v3l2 1-26 26-6 7-2-1z" fill="#B3B4B3"/>
<path transform="translate(162,447)" d="m0 0h2l1 2 2 23 1 6-5 12-2 13-1 2-5-2-6-8-2-9 1-12 8-16z" fill="#F2F2F2"/>
<path transform="translate(136,879)" d="m0 0 5 2 4 9 7 20 6 17 1 5-15 5h-5v-26l-4-26z" fill="#F1F1F1"/>
<path transform="translate(221,854)" d="m0 0h3l3 21 2 18 3 7-1 6-4 7-5-2-9-4 2-22 1-5 1-15 3-10z" fill="#EFEFEF"/>
<path transform="translate(128,497)" d="m0 0h6l6 4 2 5-1 9-5 5-6 3-18 1h-3l6-17 6-7z" fill="#08522D"/>
<path transform="translate(1228,1136)" d="m0 0h4v3l-5 3-8 16-5 11-5 13v2l6-10 4-8 3-3 8-20 2-3-1 9-5 12-2 4h7v2l-9 1-9 16-6 9-9 19-6 4-14 21-9 10-8 3-1-2 6-4 8-8 8-11 11-16 7-14 7-20 2-6 7-15 8-14z" fill="#05502B"/>
<path transform="translate(201,857)" d="m0 0h4l3 9v11l-2 4-5 3h-9l-9-4-6-5v-5h9l5-4 5-5z" fill="#EFEFEF"/>
<path transform="translate(1022,1189)" d="m0 0h3l-4 21v4l8-12 7-6h4l3 8 7-1 5-2 4 1-9 4-8 3-8 11-3 1-2-1 1-5 9-9v-6l-5 1-7 9-4 6-5 12-7 24-3 1 2-12 7-31 4-20z" fill="#05502B"/>
<path transform="translate(91,703)" d="m0 0 4 2v2h2l5 9 8 12h3l3 5v2l3 1 1 4 13 3-4 1-8-2-16-2-6-9-6-11-2-5z" fill="#EFEFEF"/>
<path transform="translate(162,853)" d="m0 0 6 1 3 4v9l-3 12-1 1-3 23-2 4-3-12-2-14 2-6 1-19z" fill="#eee"/>
<path transform="translate(1281,1193)" d="m0 0 2 2 3 7 3 13 2 2 5-4 10-5h2v2l-16 9-5-1-3-9v-6l-6 5-12 12h-5l-1-3 3-9 9-10 4-3z" fill="#05502B"/>
<path transform="translate(193,588)" d="m0 0h5v21l-8 18-1 3v19l-4 2-3-12 2-16 7-15 1-11v-8z" fill="#05502B"/>
<path transform="translate(1439,1137)" d="m0 0h2v9l-6 15-7 13-15 20-2-1 5-12 10-21 9-15z" fill="#E8E9E9"/>
<path transform="translate(152,938)" d="m0 0 5 1 1 16 1 1v5l-4-1-6-7-6 1-10 5-2-1 1-7 5-10 5 2 3 3 4 1-2-6z" fill="#EFEFEF"/>
<path transform="translate(207,755)" d="m0 0 1 3 3 1 2 10v9l-1 4h-2l-1 5-1 3 1 33 2 1 4 1-9 3v-37l-3-9-2-8-1-6 4-10z" fill="#F2F3F2"/>
<path transform="translate(32,460)" d="m0 0 4 2 7 5 12 6 4 3 1 7-4 8-4-1-8-9-5-8-4-7-3-4z" fill="#F1F1F1"/>
<path transform="translate(135,850)" d="m0 0 7 1 12 10 1 2-1 9-2 14h-2l-1 2-2-8-3-14-2-5-9-4v-6z" fill="#EDEDED"/>
<path transform="translate(993,1145)" d="m0 0h4l-2 9-10 19-10 14-7 8-1-2 9-19 10-19z" fill="#EAEAEA"/>
<path transform="translate(236,840)" d="m0 0h4l-1 18-2 22-2 8-3-2-1-10v-28l3-6z" fill="#F7F7F7"/>
<path transform="translate(905,1191)" d="m0 0h3l-1 8-11 19-5 5-3 1-2-2v-8l2-7-5 2-7 6-7 4-8 2-7-2-3-3v-4h2l4 5 10-1 11-6 5-4 5-5 1-6h2l-1 24 3-1 2-5 8-14z" fill="#05502B"/>
<path transform="translate(999,1193)" d="m0 0 3 1-3 2-1 3h7l1 1 11 1-1 2h-9l-4 2-8 11-10 9-9 12-9 7-5-1 4-3 5-3 8-8 6-9 8-6 7-9 1-2-4-1-4 4-6 11h-1v-6l7-13z" fill="#05502B"/>
<path transform="translate(1217,1196)" d="m0 0h2v23l12-6 9-6 2 1-9 7-8 5-5 1-3-1v-20l-5 5-5 6h-2l-2 4-6 9-4 8-3-1 3-13 4-4h4l2-4 9-10z" fill="#05502B"/>
<path transform="translate(161,429)" d="m0 0 1 4-3 10-10 18-4 7-4 2 1-9 13-25z" fill="#E6E7E6"/>
<path transform="translate(1082,1195)" d="m0 0h2l-1 12-3 12 3-3 6-8 5 1 2 6 5-5 6-9 2-5 2 1v5l-9 12-5 5-3-1-2-6-4 2-6 8-3 5-4-1 2-12 3-10z" fill="#05502B"/>
<path transform="translate(1232,1137)" d="m0 0h1v7l-2-1-6 15-3 6-3 3-7 14-4 5 1-7 4-10 5-11 8-16 3-3h3z" fill="#E8E8E8"/>
<path transform="translate(1330,1231)" d="m0 0h2l-2 9-8 16-7 8-2 1-2 3-1-2v-6l2 1 8-16 8-12z" fill="#E7E7E7"/>
<path transform="translate(224,936)" d="m0 0 4 1 1 3v16l-5 1-6-8-3-6v-3z" fill="#EDEDED"/>
<path transform="translate(214,912)" d="m0 0 5 1 7 8 2 5-1 4-11 4-3-1 1-7z" fill="#EBEBEB"/>
<path transform="translate(143,958)" d="m0 0 5 1 5 5 4 3-1 7-6 5-5-1-2-8z" fill="#ECEDEC"/>
<path transform="translate(400,893)" d="m0 0 2 4v9l174 1v1h-175l-1-1z" fill="#B3B4B3"/>
<path transform="translate(216,829)" d="m0 0h9l1 3-3 3-7 3-3 2 1 8 2 6-3 3-7-14 1-7z" fill="#E1E1E1"/>
<path transform="translate(98,746)" d="m0 0 4 1 3 5 2 11v11l-1 3-3-1-5-16-1-12z" fill="#EDEDED"/>
<path transform="translate(1321,1199)" d="m0 0h5l-1 7-9 9-6 5-2 2-1-7 2-7z" fill="#E3E4E3"/>
<path transform="translate(169,677)" d="m0 0h2l2 13 1 14v17l-1 2h-2l-2-8v-12l-1-25z" fill="#B3B4B3"/>
<path transform="translate(207,755)" d="m0 0 1 3 3 1 2 10v9l-1 4h-2l-1 5-1 3 1 33 2 1 4 1-9 3v-37l-2-9 3 2 2-7v-7l-3-11-2 1 2-4z" fill="#9AA59F"/>
<path transform="translate(1442,1185)" d="m0 0 1 3-3 10-3 7-4 10v2h3v2l-6 4-8 10-10 10-5 1 4-5 8-7 7-8 10-25 3-7z" fill="#185B39"/>
<path transform="translate(262,810)" d="m0 0h2l-1 11-5 21-1 20h-1l-1-24-4-1 3-3 2-10z" fill="#eee"/>
<path transform="translate(813,1198)" d="m0 0h5v2h2l-2 4-8 7-6 4-4 1 2-6 7-10z" fill="#EDEDED"/>
<path transform="translate(58,557)" d="m0 0h13l-4 1v2l4 1-5 4-3 3h-7l-3-4 1-5z" fill="#ECECEC"/>
<path transform="translate(88,692)" d="m0 0 2 1v2l3 1v2h2l3 5 3 7 8 14 2 5-5-5-6-9-3-6v-2h-2l-4-4 1 14-2-1-2-16z" fill="#9FA9A4"/>
<path transform="translate(1525,1235)" d="m0 0 2 1-6 16-6 12-5 4 2-9 9-19z" fill="#E1E2E1"/>
<path transform="translate(1128,1198)" d="m0 0 1 4-4 10-1 5 14-6h3v2l-18 8h-2v-8l1-4h-3v-2l-5-2-1-2 4 1h7l3-5z" fill="#05502B"/>
<path transform="translate(513,1029)" d="m0 0h7l-2 1v2h-4v2l-6 2 1 3-3 3-2 8-2 1-2-1v-10l7-8z" fill="#EDEDED"/>
<path transform="translate(225,650)" d="m0 0 3 4 5 12 2 7 1-4h2l1 3v15l-2 20-2 3 1-22-2-11-4-12-5-12z" fill="#B3B4B3"/>
<path transform="translate(127,503)" d="m0 0h5l3 3v2l-10 1v2h9l-3 5h-7l-4-2-1-2 4-6z" fill="#BEBFBE"/>
<path transform="translate(235,933)" d="m0 0h6l2 2 1 4v9l-1 3-4-2-3-6z" fill="#ECEDEC"/>
<path transform="translate(131,963)" d="m0 0 5 1 2 11 2 4-3 2h-6l-1-4v-13z" fill="#E8E8E8"/>
<path transform="translate(1313,1032)" d="m0 0h9l-5 4-5 3-9 3h-8l1-3 14-6z" fill="#EFEFEF"/>
<path transform="translate(238,847)" d="m0 0h1v11l-2 22-2 8-3-2-1-10v-28h1l1 24 1 8 2-11z" fill="#B3B4B3"/>
<path transform="translate(233,912)" d="m0 0 5 5 3 7-1 4h-6l-3-7v-6z" fill="#E8E8E8"/>
<path transform="translate(1278,1198)" d="m0 0h3l1 4-9 7-8 8-2-1 5-9 8-8z" fill="#E2E2E2"/>
<path transform="translate(997,1201)" d="m0 0 5 1-3 6-6 7-5 2-1 2v-3l6-12z" fill="#E8E9E8"/>
<path transform="translate(124,564)" d="m0 0 5 2-2 2h-7l1 4 2 1v2l-7 2-5 5v-2l-2-1h2l3-9 2-3z" fill="#5C826F"/>
<path transform="translate(180,752)" d="m0 0 4 4 6 12 3 1 1-7h1v10l-1 2-3-1-2-3-2 1-7-13z" fill="#92A199"/>
<path transform="translate(1598,1067)" d="m0 0h2v20l-4-2-2-3 1-10z" fill="#FDFDFD"/>
<path transform="translate(148,802)" d="m0 0h1l1 26v12l1 3v7l-5-2-13-3v-1h7l9 3-1-5z" fill="#B3B4B3"/>
<path transform="translate(860,1194)" d="m0 0h3l-2 4-5 5-1 2 5-1 2-5h2l-1 4-11 8-2-1 4-11z" fill="#05502B"/>
<path transform="translate(1320,1200)" d="m0 0 4 1-10 9-2 2-2 6-3 1 1-9 5-5z" fill="#05502B"/>
<path transform="translate(139,694)" d="m0 0 5 4 6 10 9 22-1 4-10-23-6-11-3-4z" fill="#05502B"/>
<path transform="translate(135,753)" d="m0 0 3 2 1 3v23h-3l-2-5h-5l3-3 4-2v-15z" fill="#B3B4B3"/>
<path transform="translate(125,397)" d="m0 0 2 3-2 5-8 16-5 5 1-7 9-14z" fill="#D0D1D0"/>
<path transform="translate(204,782)" d="m0 0 4 2h2l-2 6 1 33 2 1 4 1-9 3v-37z" fill="#B3B4B3"/>
<path transform="translate(53,569)" d="m0 0 4 1 1 5h2l-2 7 4 3-6-1-3-7z" fill="#B3B4B3"/>
<path transform="translate(1215,1165)" d="m0 0 3 2-1 5-5 9-4 5 1-7 4-10z" fill="#D0D0D0"/>
<path transform="translate(58,557)" d="m0 0h13l-4 1v2l4 1-5 4-1-3-5-1-6-1z" fill="#B3B4B3"/>
<path transform="translate(165,880)" d="m0 0h1l-1 17-2 10-2-2-2-10v-5l2 4v2l2-1z" fill="#B3B4B3"/>
<path transform="translate(1427,1224)" d="m0 0v3l-9 10-6 6-5 1 4-5 8-7z" fill="#05502B"/>
<path transform="translate(834,1181)" d="m0 0 1 3-7 10h-3l2-10 4-1h3z" fill="#eee"/>
<path transform="translate(1207,1170)" d="m0 0h1v5l-1-2-3 1h-14l-12 3 2-4z" fill="#B3B4B3"/>
<path transform="translate(75,623)" d="m0 0h1l-1 15-3 12-2 1 2-17z" fill="#B3B4B3"/>
<path transform="translate(255,827)" d="m0 0h1l1 7 2-1-1 9-1 20h-1l-1-24-4-1 3-3z" fill="#B3B4B3"/>
<path transform="translate(104,752)" d="m0 0 2 3 1 8v11l-1 3-3-1-2-5 1-3 2 3z" fill="#B3B4B3"/>
<path transform="translate(111,730)" d="m0 0 4 2 1 3 3 1 1 4 13 3-4 1-8-2-12-1v-1h8l-4-6z" fill="#82988D"/>
<path transform="translate(96,704)" d="m0 0 3 3 10 17 2 5-5-5-6-9-4-8z" fill="#05502B"/>
<path transform="translate(89,599)" d="m0 0 1 2-6 9-8 11-1-3 6-9z" fill="#B3B4B3"/>
<path transform="translate(152,872)" d="m0 0h1l-1 14h-2l-1 2-2-8v-6l2 4 2 1z" fill="#B3B4B3"/>
<path transform="translate(152,938)" d="m0 0 5 1 1 16 1 1v5l-4-1-1-3 1-3v-14z" fill="#B3B4B3"/>
<path transform="translate(262,810)" d="m0 0h2l-1 11-2 4v-5h-2l-1 2 1-6z" fill="#B3B4B3"/>
<path transform="translate(127,503)" d="m0 0h5l3 3v2h-11l1-4z" fill="#DCDCDC"/>
<path transform="translate(198,583)" d="m0 0 4 4-1 2-1 1-1 19h-1v-21h-5l3-2h2z" fill="#B3B4B3"/>
<path transform="translate(699,1131)" d="m0 0 2 1v6h-2l-1 4h-2v-3l-2-1 4-6z" fill="#ECECEC"/>
<path transform="translate(73,589)" d="m0 0 3 1-6 3 2 2h-10l-2-2 5-2z" fill="#B3B4B3"/>
<path transform="translate(169,677)" d="m0 0h2l1 11-3 1-1-4v-7z" fill="#879B91"/>
<path transform="translate(32,460)" d="m0 0 4 2 7 5v1l-6 1-5-7z" fill="#B7B8B7"/>
<path transform="translate(194,762)" d="m0 0h1v10l-1 2-3-1-3-5 5 1z" fill="#B3B4B3"/>
<path transform="translate(125,397)" d="m0 0 2 3-2 5-4 9-2-4 5-9z" fill="#B3B4B3"/>
<path transform="translate(1211,1174)" d="m0 0h3l1 2-6 10-1-4z" fill="#B5B6B5"/>
<path transform="translate(135,864)" d="m0 0h3l2 3v5l-4-1z" fill="#C3C4C3"/>
<path transform="translate(207,755)" d="m0 0 1 3 3 1v6l-3-1-2-5-2 1 2-4z" fill="#91A098"/>
<path transform="translate(246,675)" d="m0 0 3 3-1 21h-1z" fill="#B3B4B3"/>
<path transform="translate(933,1196)" d="m0 0 2 4-6 5-2-1 3-5z" fill="#D0D1D0"/>
<path transform="translate(243,939)" d="m0 0h1v9l-1 3-4-2-1-4h4z" fill="#B3B4B3"/>
<path transform="translate(861,1197)" d="m0 0 1 3-2 4-5 1 2-5z" fill="#D9D9D9"/>
<path transform="translate(221,840)" d="m0 0 2 1v6h-4l-1-4z" fill="#B3B4B3"/>
<path transform="translate(1113,1203)" d="m0 0 10 2v5l-4-1v-2l-5-2z" fill="#5F8371"/>
<path transform="translate(106,625)" d="m0 0h2v11l-4-1z" fill="#A5ACA8"/>
<path transform="translate(92,565)" d="m0 0h5l4 2v2l-4 1-5-3z" fill="#05502B"/>
</svg>
